<?xml version="1.0" encoding="utf-8"?>
<!-- Generator: Adobe Illustrator 23.0.6, SVG Export Plug-In . SVG Version: 6.00 Build 0)  -->
<svg version="1.1" id="Layer_1" xmlns="http://www.w3.org/2000/svg" xmlns:xlink="http://www.w3.org/1999/xlink" x="0px" y="0px"
	 viewBox="0 0 1000 425" style="enable-background:new 0 0 1000 425;" xml:space="preserve">
<style type="text/css">
    @import url('https://fonts.googleapis.com/css?family=Roboto:300,400,700');
	.st0{fill:none;stroke:#000000;stroke-width:2;stroke-linecap:round;stroke-linejoin:round;}
	.st1{fill:none;stroke:#000000;stroke-width:2;stroke-linecap:round;stroke-linejoin:round;stroke-dasharray:0,5.97;}
	.st2{fill:none;stroke:#000000;stroke-width:2;stroke-linecap:square;stroke-linejoin:bevel;}
	.st3{font-family:'Roboto';font-weight: 300;}
	.st4{font-size:16px;}
	.st5{enable-background:new    ;}
	.st6{fill:#B3B3B3;}
	.st7{font-family:'Roboto';font-weight: 300;font-style:italic;}
	.st8{font-size:6.91px;}
	.st9{font-size:13px;}
	.st10{fill:#808080;}
	.st11{font-family:'Roboto';font-weight: 300;font-style:italic;}
	.st12{letter-spacing:1;}
	.st13{letter-spacing:2;}
	.st14{font-family:'Roboto';font-weight: 300;}
	.st15{font-size:14px;}
	.st16{fill:none;stroke:#ED1C24;stroke-width:2;stroke-miterlimit:10;}
	.st17{fill:#FFFFFF;stroke:#000000;stroke-width:0.5;stroke-miterlimit:10;}
	.st18{font-size:12.9994px;}
	.st19{font-size:13.0299px;}
	.st20{font-size:12.998px;}
	.st21{font-size:13.0571px;}
	.st22{font-size:13.0006px;}
	.st23{font-size:13.0005px;}
	.st24{font-size:12.9996px;}
	.st25{fill:none;stroke:#000000;stroke-width:0.75;stroke-miterlimit:10;}
	.st26{letter-spacing:5;}
</style>
<title>1000px@cathay</title>
<g id="Background2">
	
		<image style="overflow:visible;enable-background:new    ;" width="4004" height="1536" xlink:href="3BB08100C7FC8B0A.png"  transform="matrix(0.2497 0 0 0.2497 -6.054295e-02 21.0093)">
	</image>
</g>
<g id="route">
	<line class="st0" x1="351.9" y1="148.9" x2="351.9" y2="148.9"/>
	<line class="st1" x1="346" y1="149.3" x2="33.1" y2="170"/>
	<line class="st0" x1="30.1" y1="170.2" x2="30.1" y2="170.2"/>
	<path class="st2" d="M177.5,307.9l-5.3-3c-0.5-0.8-0.5-1.8,0-2.7c0.8-1.5,1-3.4,1.9-4c1.6-1,3.6-1,5.1,0c2.3,1.3,19.8,6.8,19.8,6.8
		l2.1,0.6l9.3,4.9c0,0,2.3,1.1,3,0s12-16.7,12-16.7l26.6-33.5l16.1-7.4c1.1,0,2-0.6,2.5-1.5c1-1.7,1.3-4.4,2.1-5.5
		s13.1-13.3,13.1-13.3s21.1-18.6,21.8-19.4s18-15.2,18-15.2l6.3-7.8l21.1-40.6c0.6-0.6,1.4-1.1,2.3-1.3c1.3-0.4,23.4-1.9,23.4-1.9
		l36.8,0.2l159.2-1.5L720,132.6c0,0,9.5-3,10.3-3.2s2.7-1,3.8-0.6s1.1,0.4,3.2,0c1.4-0.3,2.8-0.7,4.2-1.1l1.9-1.5l7.6-1.7l1.7,0.2
		l51.8-13.9l35-10.1l23.4-8.2l57.7-16.3l7.2-0.8l5.7,3.6l1.1,2.4l0.8,0.7c0,0,1-0.1,0.7-0.5c-0.2-0.3-0.4-0.5-0.7-0.5"/>
</g>
<g id="Texts">
	<text transform="matrix(1 0 0 1 82.9 339.72)" class="st3 st4">August 13</text>
	<text transform="matrix(1 0 0 1 90.73 358.9199)" class="st3 st4">9:52pm</text>
	<text transform="matrix(1 0 0 1 188.44 102.8301)" class="st3 st4">Planned </text>
	<text transform="matrix(1 0 0 1 251.24 102.8301)" class="st3 st4">r</text>
	<text transform="matrix(1 0 0 1 256.57 102.8301)" class="st3 st4">oute</text>
	<text transform="matrix(1 0 0 1 899.63 24.4399)" class="st3 st4">T</text>
	<text transform="matrix(1 0 0 1 908.5 24.4399)" class="st3 st4">uesd</text>
	<text transform="matrix(1 0 0 1 943.51 24.4399)" class="st3 st4">a</text>
	<text transform="matrix(1 0 0 1 952.1899 24.4399)" class="st3 st4">y, </text>
	<text transform="matrix(1 0 0 1 899.63 43.6399)" class="st3 st4">August 13</text>
	<text transform="matrix(1 0 0 1 899.63 62.8401)" class="st3 st4">7:03am</text>
	<g class="st5">
		<path d="M377.2,202.4h-2.9v4.1h-0.8v-10h3.2c1.1,0,1.9,0.3,2.5,0.8s0.9,1.2,0.9,2.2c0,0.6-0.2,1.2-0.6,1.7s-0.9,0.8-1.5,1l2.5,4.2
			v0.1h-0.9L377.2,202.4z M374.3,201.7h2.6c0.7,0,1.3-0.2,1.7-0.6s0.6-0.9,0.6-1.6c0-0.7-0.2-1.2-0.7-1.6s-1.1-0.6-1.9-0.6h-2.4
			L374.3,201.7L374.3,201.7z"/>
		<path d="M391.4,196.6v6.8c0,0.7-0.2,1.3-0.4,1.8s-0.7,0.9-1.2,1.1c-0.5,0.3-1.1,0.4-1.8,0.4c-1,0-1.9-0.3-2.5-0.9
			c-0.6-0.6-1-1.4-1-2.4v-6.9h0.8v6.7c0,0.8,0.2,1.5,0.7,2s1.1,0.7,1.9,0.7s1.5-0.2,1.9-0.7s0.7-1.1,0.7-1.9v-6.7L391.4,196.6
			L391.4,196.6z"/>
		<path d="M401.4,204.1c0-0.6-0.2-1-0.6-1.3s-1.1-0.6-2.1-0.9c-1-0.3-1.8-0.6-2.3-0.9c-0.7-0.5-1-1.1-1-1.9c0-0.8,0.3-1.4,0.9-1.9
			s1.4-0.7,2.4-0.7c0.7,0,1.3,0.1,1.8,0.4s0.9,0.6,1.2,1.1s0.4,1,0.4,1.5h-0.8c0-0.7-0.2-1.2-0.7-1.6c-0.5-0.4-1.1-0.6-1.9-0.6
			s-1.4,0.2-1.8,0.5c-0.5,0.3-0.7,0.8-0.7,1.3s0.2,0.9,0.6,1.2s1.1,0.6,1.9,0.8s1.6,0.5,2,0.8c0.5,0.3,0.8,0.6,1,0.9
			s0.3,0.8,0.3,1.3c0,0.8-0.3,1.4-0.9,1.9s-1.5,0.7-2.5,0.7c-0.7,0-1.3-0.1-1.9-0.4s-1-0.6-1.3-1.1s-0.5-1-0.5-1.6h0.8
			c0,0.7,0.3,1.3,0.8,1.7s1.2,0.6,2.1,0.6c0.8,0,1.4-0.2,1.9-0.5S401.4,204.6,401.4,204.1z"/>
		<path d="M411.8,204.1c0-0.6-0.2-1-0.6-1.3s-1.1-0.6-2.1-0.9c-1-0.3-1.8-0.6-2.3-0.9c-0.7-0.5-1-1.1-1-1.9c0-0.8,0.3-1.4,0.9-1.9
			s1.4-0.7,2.4-0.7c0.7,0,1.3,0.1,1.8,0.4s0.9,0.6,1.2,1.1s0.4,1,0.4,1.5h-0.8c0-0.7-0.2-1.2-0.7-1.6c-0.5-0.4-1.1-0.6-1.9-0.6
			s-1.4,0.2-1.8,0.5c-0.5,0.3-0.7,0.8-0.7,1.3s0.2,0.9,0.6,1.2s1.1,0.6,1.9,0.8s1.6,0.5,2,0.8c0.5,0.3,0.8,0.6,1,0.9
			s0.3,0.8,0.3,1.3c0,0.8-0.3,1.4-0.9,1.9s-1.5,0.7-2.5,0.7c-0.7,0-1.3-0.1-1.9-0.4s-1-0.6-1.3-1.1s-0.5-1-0.5-1.6h0.8
			c0,0.7,0.3,1.3,0.8,1.7s1.2,0.6,2.1,0.6c0.8,0,1.4-0.2,1.9-0.5S411.8,204.6,411.8,204.1z"/>
	</g>
	<g class="st5">
		<path d="M418.4,206.5h-0.8v-10h0.8V206.5z"/>
	</g>
	<g class="st5">
		<path d="M428.7,203.7h-4.5l-1,2.8h-0.9l3.8-10h0.8l3.8,10h-0.9L428.7,203.7z M424.5,203h4l-2-5.4L424.5,203z"/>
	</g>
	<text transform="matrix(1 0 0 1 181.49 280.8101)" class="st6 st7 st8">Sea of Japan</text>
	<text transform="matrix(1 0 0 1 490.08 342.3301)" class="st6 st7 st9">Baring Sea</text>
	<text transform="matrix(1 0 0 1 334.66 282.6299)" class="st6 st7 st9">Sea of Okhotsk</text>
	<g class="st5">
		<path class="st10" d="M610.3,59.2c-0.3,0.4-0.8,0.7-1.3,0.9c-0.6,0.2-1.2,0.3-2,0.3c-0.9,0-1.6-0.3-2.1-0.9
			c-0.5-0.6-0.8-1.4-0.9-2.3c0-0.3,0-0.7,0-1l0.2-1.1c0.2-1.3,0.7-2.3,1.4-3.1s1.7-1.1,2.8-1.1c0.8,0,1.5,0.3,2,0.8s0.8,1.1,0.8,2
			h-0.8c0-0.6-0.2-1.1-0.6-1.5c-0.4-0.4-0.9-0.5-1.5-0.6c-0.9,0-1.6,0.3-2.2,0.9c-0.6,0.6-1,1.5-1.2,2.7l-0.2,1
			c0,0.3-0.1,0.6-0.1,0.9c0,0.8,0.2,1.5,0.6,2s0.9,0.7,1.6,0.7c1.1,0,1.9-0.2,2.5-0.8l0.4-2.4h-2.4l0.1-0.7h3.2L610.3,59.2z"/>
		<path class="st10" d="M616.3,56.5h-2.6l-0.7,3.8h-0.8l1.6-9.2h2.7c0.9,0,1.6,0.2,2.1,0.7s0.7,1.1,0.6,1.9
			c-0.1,0.6-0.3,1.2-0.7,1.6c-0.4,0.4-0.9,0.8-1.6,1l1.6,3.9v0.1h-0.8L616.3,56.5z M613.8,55.8h2.3c0.7,0,1.2-0.2,1.7-0.6
			c0.5-0.4,0.7-0.9,0.8-1.5s-0.1-1.1-0.4-1.4c-0.3-0.4-0.8-0.5-1.5-0.6h-2.2L613.8,55.8z"/>
		<path class="st10" d="M626.1,55.9h-4.2l-0.7,3.8h4.8l-0.1,0.7h-5.6l1.6-9.2h5.6l-0.1,0.7h-4.8l-0.6,3.5h4.2L626.1,55.9z"/>
		<path class="st10" d="M633.3,55.9h-4.2l-0.7,3.8h4.8l-0.1,0.7h-5.6l1.6-9.2h5.6l-0.1,0.7h-4.8l-0.6,3.5h4.2L633.3,55.9z"/>
		<path class="st10" d="M641.5,60.3h-0.7l-3.8-7.9l-1.4,7.9h-0.8l1.6-9.2h0.7L641,59l1.4-7.9h0.8L641.5,60.3z"/>
	</g>
	<g class="st5">
		<path class="st10" d="M644.7,59.7h4.4l-0.1,0.7h-5.2l1.6-9.2h0.8L644.7,59.7z"/>
	</g>
	<g class="st5">
		<path class="st10" d="M656,57.7h-4l-1.4,2.6h-0.8l5-9.2h0.7l1.8,9.2h-0.8L656,57.7z M652.3,57.1h3.6l-0.9-5L652.3,57.1z"/>
		<path class="st10" d="M665.3,60.3h-0.7l-3.8-7.9l-1.4,7.9h-0.8l1.6-9.2h0.7l3.8,7.9l1.4-7.9h0.8L665.3,60.3z"/>
		<path class="st10" d="M667.6,60.3l1.6-9.2h2.4c0.7,0,1.3,0.2,1.9,0.5c0.5,0.4,0.9,0.9,1.1,1.5c0.2,0.6,0.3,1.4,0.2,2.1l-0.1,0.8
			c-0.2,1.3-0.7,2.3-1.5,3.1s-1.8,1.2-3.1,1.2C670.1,60.3,667.6,60.3,667.6,60.3z M669.9,51.8l-1.4,7.9h1.7c0.6,0,1.2-0.1,1.8-0.4
			s1-0.7,1.3-1.3c0.3-0.5,0.6-1.1,0.7-1.8c0.1-0.7,0.2-1.1,0.2-1.4c0-0.3,0-0.5,0-0.8c-0.1-0.7-0.4-1.2-0.8-1.6
			c-0.4-0.4-1-0.6-1.6-0.6L669.9,51.8z"/>
	</g>
	<text transform="matrix(1 0 0 1 637.16 364.55)" class="st6 st11 st8 st12">P</text>
	<text transform="matrix(1 0 0 1 644.41 364.55)" class="st6 st11 st8 st13">ACIFIC OCEAN</text>
	<g class="st5">
		<path d="M37.8,240h-3.4v9.2h-0.8V240h-3.4v-0.7h7.7L37.8,240L37.8,240z"/>
	</g>
	<g class="st5">
		<path d="M46.3,246.4h-4.5l-1,2.8h-0.9l3.8-10h0.8l3.8,10h-0.9L46.3,246.4z M42,245.7h4l-2-5.4L42,245.7z"/>
		<path d="M52.8,249.2H52v-10h0.8V249.2z"/>
	</g>
	<g class="st5">
		<path d="M59.5,246.5l0.3,1.5l0.4-1.5l2.2-7.3h0.8l2.1,7.3l0.4,1.5l0.3-1.6l1.8-7.3h0.9l-2.5,10h-0.8l-2.3-7.8l-0.3-1l-0.2,1
			l-2.3,7.8h-0.8l-2.5-10h0.9L59.5,246.5z"/>
	</g>
	<g class="st5">
		<path d="M77.3,246.4h-4.5l-1,2.8h-0.9l3.8-10h0.8l3.8,10h-0.9L77.3,246.4z M73.1,245.7h4l-2-5.4L73.1,245.7z"/>
		<path d="M90.2,249.2h-0.8l-5.7-8.5v8.5h-0.8v-10h0.8l5.7,8.5v-8.5h0.8V249.2z"/>
	</g>
	<g class="st5">
		<path d="M76.7,104c-0.1,1-0.5,1.7-1,2.2c-0.6,0.5-1.4,0.8-2.4,0.8c-0.7,0-1.3-0.2-1.8-0.5s-0.9-0.8-1.2-1.5
			c-0.3-0.6-0.4-1.3-0.4-2.2v-1.2c0-0.8,0.1-1.5,0.4-2.2c0.3-0.6,0.7-1.1,1.2-1.5c0.5-0.3,1.2-0.5,1.9-0.5c1,0,1.8,0.3,2.3,0.8
			s0.9,1.3,1,2.2h-0.8c-0.2-1.6-1-2.4-2.6-2.4c-0.8,0-1.5,0.3-2,0.9s-0.7,1.5-0.7,2.6v1.1c0,1.1,0.2,1.9,0.7,2.6c0.5,0.6,1.1,1,2,1
			c0.8,0,1.4-0.2,1.8-0.6s0.7-1,0.8-1.8h0.8V104z"/>
		<path d="M87.4,106.8h-0.8v-4.4h-5.3v4.4h-0.8v-9.2h0.8v4.2h5.3v-4.2h0.8V106.8z"/>
		<path d="M92.7,106.8h-0.8v-9.2h0.8V106.8z"/>
	</g>
	<g class="st5">
		<path d="M103.9,106.8h-0.8l-5.3-7.9v7.9H97v-9.2h0.8l5.3,7.9v-7.9h0.8V106.8z"/>
	</g>
	<g class="st5">
		<path d="M113.4,104.2h-4.2l-1,2.6h-0.8l3.5-9.2h0.7l3.5,9.2h-0.8L113.4,104.2z M109.4,103.6h3.7l-1.9-5L109.4,103.6z"/>
	</g>
	<g class="st5">
		<path d="M723,236.2c-0.1,1-0.5,1.9-1.1,2.4s-1.5,0.8-2.5,0.8c-0.7,0-1.4-0.2-2-0.6s-1-0.9-1.3-1.6c-0.3-0.7-0.5-1.5-0.5-2.3v-1.3
			c0-0.9,0.2-1.7,0.5-2.4s0.8-1.2,1.3-1.6c0.6-0.4,1.2-0.6,2-0.6c1.1,0,1.9,0.3,2.5,0.9c0.6,0.6,1,1.4,1.1,2.4h-0.8
			c-0.2-1.7-1.1-2.5-2.8-2.5c-0.9,0-1.6,0.3-2.2,1c-0.5,0.7-0.8,1.6-0.8,2.8v1.2c0,1.1,0.3,2.1,0.8,2.8s1.2,1,2.1,1
			c0.9,0,1.5-0.2,2-0.6c0.4-0.4,0.7-1.1,0.8-1.9h0.9V236.2z"/>
		<path d="M732.6,236.5H728l-1,2.8h-0.9l3.8-10h0.8l3.8,10h-0.9L732.6,236.5z M728.3,235.8h4l-2-5.4L728.3,235.8z"/>
	</g>
	<g class="st5">
		<path d="M745.3,239.3h-0.8l-5.7-8.5v8.5H738v-10h0.8l5.7,8.5v-8.5h0.8V239.3z"/>
	</g>
	<g class="st5">
		<path d="M755.5,236.5H751l-1,2.8h-1l3.8-10h0.8l3.8,10h-0.9L755.5,236.5z M751.2,235.8h4l-2-5.4L751.2,235.8z"/>
	</g>
	<g class="st5">
		<path d="M760.9,239.3v-10h2.8c0.8,0,1.5,0.2,2.2,0.6c0.6,0.4,1.2,0.9,1.5,1.6s0.5,1.5,0.5,2.4v0.9c0,0.9-0.2,1.7-0.5,2.4
			c-0.4,0.7-0.9,1.2-1.5,1.6c-0.7,0.4-1.4,0.6-2.3,0.6h-2.7V239.3z M761.8,230.1v8.5h1.9c1,0,1.9-0.3,2.5-1s1-1.6,1-2.8v-0.9
			c0-1.1-0.3-2.1-0.9-2.8c-0.6-0.7-1.4-1-2.5-1H761.8z"/>
	</g>
	<g class="st5">
		<path d="M777.4,236.5h-4.5l-1,2.8H771l3.8-10h0.8l3.8,10h-0.9L777.4,236.5z M773.2,235.8h4l-2-5.4L773.2,235.8z"/>
	</g>
	<text transform="matrix(1 0 0 1 220.18 322.01)" class="st14 st8">J</text>
	<text transform="matrix(1 0 0 1 225.01 322.01)" class="st14 st8">A</text>
	<text transform="matrix(1 0 0 1 230.5 322.01)" class="st14 st8">P</text>
	<text transform="matrix(1 0 0 1 235.41 322.01)" class="st14 st8">AN</text>
	<text transform="matrix(1 0 0 1 14 185.7)" class="st14 st15">Hong </text>
	<text transform="matrix(1 0 0 1 51.23 185.7)" class="st14 st15">K</text>
	<text transform="matrix(1 0 0 1 60.05 185.7)" class="st14 st15">ong</text>
	<text transform="matrix(1 0 0 1 915.59 102.55)" class="st14 st15">New </text>
	<text transform="matrix(1 0 0 1 946.9 102.55)" class="st14 st15">Y</text>
	<text transform="matrix(1 0 0 1 954.88 102.55)" class="st14 st15">ork</text>
	<text transform="matrix(1 0 0 1 137.86 320.8799)" class="st14 st15">Osaka</text>
	<text transform="matrix(1 0 0 1 191.23 348.1201)" class="st3 st15">T</text>
	<text transform="matrix(1 0 0 1 198.89 348.1201)" class="st3 st15">ok</text>
	<text transform="matrix(1 0 0 1 214.03 348.1201)" class="st3 st15">y</text>
	<text transform="matrix(1 0 0 1 220.97 348.1201)" class="st3 st15">o</text>
	<text transform="matrix(1 0 0 1 173.58 176.49)" class="st3 st15">Beijing</text>
	<rect x="24.2" y="167.4" width="6" height="6"/>
	<rect x="175.4" y="300.5" width="6" height="6"/>
	<rect x="932.9" y="80.1" width="6" height="6"/>
	<rect x="176.4" y="305.3" width="3" height="3"/>
	<circle class="st16" cx="353.7" cy="149.9" r="13.5"/>
	<text transform="matrix(1 0 0 1 819.15 405.3)" class="st3 st9">Los Angeles</text>
	<text transform="matrix(1 0 0 1 903.46 180.6899)" class="st3 st8">Chicago</text>
	<text transform="matrix(1 0 0 1 730.11 315.1599)" class="st3 st9">V</text>
	<text transform="matrix(1 0 0 1 737.84 315.1599)" class="st3 st9">ancou</text>
	<text transform="matrix(1 0 0 1 773.27 315.1599)" class="st3 st9">v</text>
	<text transform="matrix(1 0 0 1 779.55 315.1599)" class="st3 st9">er</text>
	<circle class="st17" cx="763.2" cy="323.9" r="2"/>
	<circle class="st17" cx="864.2" cy="388.4" r="2"/>
	<circle class="st17" cx="915.2" cy="170.5" r="1"/>
	<text transform="matrix(0.2084 0.978 -0.978 0.2084 510.5194 72.1401)" class="st6 st11 st18">A</text>
	<text transform="matrix(0.3176 0.9482 -0.9482 0.3176 514.1498 87.1399)" class="st6 st11 st9">R</text>
	<text transform="matrix(0.4191 0.908 -0.908 0.4191 519.2604 101.169)" class="st6 st11 st19">C</text>
	<text transform="matrix(0.5101 0.8601 -0.8601 0.5101 525.9507 114.7604)" class="st6 st11 st20">T</text>
	<text transform="matrix(0.5775 0.8164 -0.8164 0.5775 533.6906 127.0706)" class="st6 st11 st21">I</text>
	<text transform="matrix(0.642 0.7667 -0.7667 0.642 539.8803 135.4698)" class="st6 st11 st9">C</text>
	<text transform="matrix(0.7438 0.6684 -0.6684 0.7438 557.0096 154.0003)" class="st6 st11 st9">O</text>
	<text transform="matrix(0.792 0.6106 -0.6106 0.792 568.8502 164.2601)" class="st6 st11 st22">C</text>
	<text transform="matrix(0.8284 0.5602 -0.5602 0.8284 580.6099 173.0492)" class="st6 st11 st23">E</text>
	<text transform="matrix(0.8601 0.5101 -0.5101 0.8601 591.9995 180.5397)" class="st6 st11 st20">A</text>
	<text transform="matrix(0.8848 0.4659 -0.4659 0.8848 604.6801 187.9202)" class="st6 st11 st24">N</text>
	<line class="st25" x1="249" y1="114.9" x2="249" y2="149.3"/>
	<path d="M249,148l2.7-1.6l0.1,0.1l-1.8,4.4l-1,4.6c-0.3-1.5-0.7-3.1-1-4.6l-1.8-4.4l0.1-0.1L249,148z"/>
	<text transform="matrix(1 0 0 1 317.97 59.3101)" class="st3 st4">Flight CX899 </text>
	<text transform="matrix(1 0 0 1 317.97 78.51)" class="st3 st4">di</text>
	<text transform="matrix(1 0 0 1 331.1 78.51)" class="st3 st4">v</text>
	<text transform="matrix(1 0 0 1 339.04 78.51)" class="st3 st4">e</text>
	<text transform="matrix(1 0 0 1 347.5 78.51)" class="st3 st4">r</text>
	<text transform="matrix(1 0 0 1 353.12 78.51)" class="st3 st4">ted to Japan on </text>
	<text transform="matrix(1 0 0 1 317.97 97.71)" class="st3 st4">T</text>
	<text transform="matrix(1 0 0 1 326.84 97.71)" class="st3 st4">uesd</text>
	<text transform="matrix(1 0 0 1 361.85 97.71)" class="st3 st4">a</text>
	<text transform="matrix(1 0 0 1 370.53 97.71)" class="st3 st4">y, August 13</text>
	<text transform="matrix(1 0 0 1 317.97 116.9099)" class="st3 st4">5:37pm</text>
	<text transform="matrix(1 0 0 1 424.69 414.3501)" class="st6 st11 st15 st26">P</text>
	<g class="st5">
		<path class="st6" d="M445.6,411.7h-4l-1.4,2.6h-1.4l5.4-10h1.1l2,10H446L445.6,411.7z M442.1,410.7h3.3l-0.8-4.6L442.1,410.7z"/>
		<path class="st6" d="M463.2,411.2c-0.2,1-0.7,1.8-1.4,2.4s-1.6,0.9-2.7,0.9c-0.6,0-1.2-0.2-1.6-0.5c-0.5-0.3-0.8-0.7-1.1-1.2
			s-0.4-1.1-0.4-1.8c0-0.4,0-0.7,0-1.1l0.1-0.8c0.2-1.5,0.7-2.7,1.6-3.5s1.9-1.3,3.1-1.3c0.9,0,1.7,0.3,2.2,0.9s0.8,1.4,0.9,2.4
			h-1.3c-0.1-1.4-0.6-2.1-1.6-2.3h-0.2c-0.9,0-1.6,0.3-2.2,1s-0.9,1.6-1.1,2.7l-0.2,1v0.6c0,0.8,0.1,1.5,0.4,2s0.8,0.8,1.5,0.8
			s1.3-0.1,1.7-0.5s0.8-0.9,1-1.7H463.2z"/>
		<path class="st6" d="M472.9,414.3h-1.3l1.7-10h1.3L472.9,414.3z"/>
		<path class="st6" d="M488.4,410h-4l-0.8,4.4h-1.3l1.7-10h6l-0.2,1.1h-4.7l-0.6,3.4h4.1L488.4,410z"/>
		<path class="st6" d="M498.3,414.3H497l1.7-10h1.3L498.3,414.3z"/>
		<path class="st6" d="M515.2,411.2c-0.2,1-0.7,1.8-1.4,2.4s-1.6,0.9-2.7,0.9c-0.6,0-1.2-0.2-1.6-0.5c-0.5-0.3-0.8-0.7-1.1-1.2
			c-0.3-0.5-0.4-1.1-0.4-1.8c0-0.4,0-0.7,0-1.1l0.1-0.8c0.2-1.5,0.7-2.7,1.6-3.5c0.8-0.9,1.9-1.3,3.1-1.3c0.9,0,1.7,0.3,2.2,0.9
			s0.8,1.4,0.9,2.4h-1.3c-0.1-1.4-0.6-2.1-1.6-2.3h-0.2c-0.9,0-1.6,0.3-2.2,1s-0.9,1.6-1.1,2.7l-0.2,1v0.6c0,0.8,0.1,1.5,0.4,2
			s0.8,0.8,1.5,0.8s1.3-0.1,1.7-0.5c0.5-0.4,0.8-0.9,1-1.7H515.2z"/>
		<path class="st6" d="M537.6,414.5c-0.6,0-1.2-0.2-1.7-0.5s-0.8-0.7-1.1-1.3c-0.3-0.6-0.4-1.2-0.4-1.9c0-0.6,0-1.2,0.2-2
			s0.4-1.5,0.8-2.2c0.4-0.7,0.8-1.2,1.3-1.6c0.7-0.5,1.5-0.8,2.4-0.8c1,0,1.7,0.4,2.3,1c0.6,0.7,0.9,1.5,0.9,2.7
			c0,0.5,0,1.1-0.1,1.8s-0.3,1.4-0.6,2.1c-0.3,0.6-0.7,1.2-1.1,1.6C539.7,414.1,538.7,414.5,537.6,414.5z M541.1,408.2
			c0-0.9-0.1-1.6-0.5-2.1s-0.8-0.8-1.5-0.8c-0.6,0-1.2,0.1-1.6,0.5c-0.5,0.3-0.9,0.9-1.2,1.6s-0.5,1.6-0.6,2.6v0.4
			c0,0.9,0.1,1.6,0.5,2.1c0.3,0.5,0.9,0.8,1.5,0.8c0.9,0,1.6-0.3,2.1-0.9c0.6-0.6,0.9-1.5,1.1-2.7
			C541.1,409.2,541.1,408.7,541.1,408.2z"/>
		<path class="st6" d="M558,411.2c-0.2,1-0.7,1.8-1.4,2.4s-1.6,0.9-2.7,0.9c-0.6,0-1.2-0.2-1.6-0.5c-0.5-0.3-0.8-0.7-1.1-1.2
			s-0.4-1.1-0.4-1.8c0-0.4,0-0.7,0-1.1l0.1-0.8c0.2-1.5,0.7-2.7,1.6-3.5c0.8-0.9,1.9-1.3,3.1-1.3c0.9,0,1.7,0.3,2.2,0.9
			s0.8,1.4,0.9,2.4h-1.3c-0.1-1.4-0.6-2.1-1.6-2.3h-0.2c-0.9,0-1.6,0.3-2.2,1c-0.6,0.7-0.9,1.6-1.1,2.7l-0.2,1v0.6
			c0,0.8,0.1,1.5,0.4,2c0.3,0.5,0.8,0.8,1.5,0.8s1.3-0.1,1.7-0.5c0.5-0.4,0.8-0.9,1-1.7H558z"/>
		<path class="st6" d="M572.6,409.8h-4.2l-0.6,3.5h4.9l-0.2,1.1h-6.1l1.7-10h6.1l-0.2,1.1h-4.8l-0.6,3.2h4.2L572.6,409.8z"/>
		<path class="st6" d="M586.9,411.7h-4l-1.4,2.6h-1.4l5.4-10h1.1l2,10h-1.3L586.9,411.7z M583.4,410.7h3.3l-0.8-4.6L583.4,410.7z"/>
		<path class="st6" d="M604.4,414.3h-1.2l-3.6-7.7l-1.3,7.7H597l1.7-10h1.2l3.6,7.8l1.3-7.8h1.3L604.4,414.3z"/>
	</g>
	<g class="st5">
		<path d="M840,266.3v6.8c0,0.7-0.2,1.3-0.4,1.8c-0.3,0.5-0.7,0.9-1.2,1.1c-0.5,0.3-1.1,0.4-1.8,0.4c-1,0-1.9-0.3-2.5-0.9
			s-1-1.4-1-2.4v-6.9h0.8v6.7c0,0.8,0.2,1.5,0.7,2s1.1,0.7,1.9,0.7s1.5-0.2,1.9-0.7c0.5-0.5,0.7-1.1,0.7-1.9v-6.7H840z"/>
		<path d="M851.8,276.3H851l-5.7-8.5v8.5h-0.8v-10h0.8l5.7,8.5v-8.5h0.8V276.3z"/>
	</g>
	<g class="st5">
		<path d="M857.7,276.3h-0.8v-10h0.8V276.3z"/>
	</g>
	<g class="st5">
		<path d="M869.1,267h-3.4v9.2h-0.8V267h-3.4v-0.7h7.7L869.1,267L869.1,267z"/>
		<path d="M878.3,271.5h-4.7v4.1h5.4v0.7h-6.2v-10h6.2v0.7h-5.3v3.8h4.7v0.7H878.3z"/>
		<path d="M882.9,276.3v-10h2.8c0.8,0,1.5,0.2,2.2,0.6c0.6,0.4,1.2,0.9,1.5,1.6c0.4,0.7,0.5,1.5,0.5,2.4v0.9c0,0.9-0.2,1.7-0.5,2.4
			c-0.4,0.7-0.9,1.2-1.5,1.6c-0.7,0.4-1.4,0.6-2.3,0.6h-2.7V276.3z M883.7,267v8.5h1.9c1,0,1.9-0.3,2.5-1s1-1.6,1-2.8v-0.9
			c0-1.1-0.3-2.1-0.9-2.8c-0.6-0.7-1.4-1-2.5-1L883.7,267L883.7,267z"/>
		<path d="M905.3,273.8c0-0.6-0.2-1-0.6-1.3c-0.4-0.3-1.1-0.6-2.1-0.9s-1.8-0.6-2.3-0.9c-0.7-0.5-1-1.1-1-1.9s0.3-1.4,0.9-1.9
			c0.6-0.5,1.4-0.7,2.4-0.7c0.7,0,1.3,0.1,1.8,0.4s0.9,0.6,1.2,1.1s0.4,1,0.4,1.5h-0.8c0-0.7-0.2-1.2-0.7-1.6s-1.1-0.6-1.9-0.6
			c-0.8,0-1.4,0.2-1.8,0.5c-0.5,0.3-0.7,0.8-0.7,1.3s0.2,0.9,0.6,1.2c0.4,0.3,1.1,0.6,1.9,0.8c0.9,0.2,1.6,0.5,2,0.8
			c0.5,0.3,0.8,0.6,1,0.9c0.2,0.4,0.3,0.8,0.3,1.3c0,0.8-0.3,1.4-0.9,1.9c-0.6,0.5-1.5,0.7-2.5,0.7c-0.7,0-1.3-0.1-1.9-0.4
			c-0.6-0.3-1-0.6-1.3-1.1s-0.5-1-0.5-1.6h0.8c0,0.7,0.3,1.3,0.8,1.7c0.5,0.4,1.2,0.6,2.1,0.6c0.8,0,1.4-0.2,1.9-0.5
			C905,274.8,905.3,274.4,905.3,273.8z"/>
	</g>
	<g class="st5">
		<path d="M917,267h-3.4v9.2h-0.8V267h-3.4v-0.7h7.7L917,267L917,267z"/>
	</g>
	<g class="st5">
		<path d="M925.4,273.5h-4.5l-1,2.8H919l3.8-10h0.8l3.8,10h-0.9L925.4,273.5z M921.2,272.8h4l-2-5.4L921.2,272.8z"/>
	</g>
	<g class="st5">
		<path d="M936.8,267h-3.4v9.2h-0.8V267h-3.4v-0.7h7.7L936.8,267L936.8,267z"/>
		<path d="M946,271.5h-4.7v4.1h5.4v0.7h-6.2v-10h6.2v0.7h-5.3v3.8h4.7v0.7H946z"/>
		<path d="M956.2,273.8c0-0.6-0.2-1-0.6-1.3c-0.4-0.3-1.1-0.6-2.1-0.9s-1.8-0.6-2.3-0.9c-0.7-0.5-1-1.1-1-1.9s0.3-1.4,0.9-1.9
			c0.6-0.5,1.4-0.7,2.4-0.7c0.7,0,1.3,0.1,1.8,0.4s0.9,0.6,1.2,1.1s0.4,1,0.4,1.5h-0.8c0-0.7-0.2-1.2-0.7-1.6s-1.1-0.6-1.9-0.6
			c-0.8,0-1.4,0.2-1.8,0.5c-0.5,0.3-0.7,0.8-0.7,1.3s0.2,0.9,0.6,1.2c0.4,0.3,1.1,0.6,1.9,0.8s1.6,0.5,2,0.8c0.5,0.3,0.8,0.6,1,0.9
			c0.2,0.4,0.3,0.8,0.3,1.3c0,0.8-0.3,1.4-0.9,1.9c-0.6,0.5-1.5,0.7-2.5,0.7c-0.7,0-1.3-0.1-1.9-0.4c-0.6-0.3-1-0.6-1.3-1.1
			s-0.5-1-0.5-1.6h0.8c0,0.7,0.3,1.3,0.8,1.7c0.5,0.4,1.2,0.6,2.1,0.6c0.8,0,1.4-0.2,1.9-0.5S956.2,274.4,956.2,273.8z"/>
	</g>
	<circle cx="166.9" cy="166.3" r="2"/>
	<circle cx="203.2" cy="328.4" r="2"/>
	<path class="st25" d="M387.1,111c2.4,8.4-2,16.5-10.6,24.3"/>
	<path d="M377.5,134.4l3,1v0.1L376,137l-4.2,2.2c1-1.2,1.9-2.5,2.8-3.8l2.2-4.2h0.1L377.5,134.4z"/>
</g>
</svg>
