<?xml version="1.0" encoding="utf-8"?>
<!-- Generator: Adobe Illustrator 22.0.1, SVG Export Plug-In . SVG Version: 6.00 Build 0)  -->
<svg version="1.1" id="Capa_1" xmlns="http://www.w3.org/2000/svg" xmlns:xlink="http://www.w3.org/1999/xlink" x="0px" y="0px"
	 viewBox="0 0 97.5 155.5" style="enable-background:new 0 0 97.5 155.5;" xml:space="preserve">
<style type="text/css">
	.st0{fill:#BAB9B8;}
	.st1{display:none;}
	.st2{display:inline;fill:#9B9838;}
	.st3{display:inline;fill:#9B9838;stroke:#FFFFFF;stroke-width:0.5;stroke-miterlimit:10;}
	.st4{fill:none;stroke:#FFFFFF;stroke-width:0.5;stroke-miterlimit:10;}
	.st5{fill:#1E1E1C;}
	.st6{font-family:'Roboto-Thin';}
	.st7{font-size:6px;}
	#zona{
	opacity:0;
	transition: all ease 1s;
	}
	svg:hover #zona{
	opacity:1;
	transition: all ease 1s;
	}
</style>
<path class="st0" d="M35.4,153.9l-1.8,0.2l-0.9-1.1l-1.1-0.1h-2l3.9-11.4l0.7,1.4l-3,6.7l2.4,1.9l2.6,0.8L35.4,153.9z M40.3,69
	l1.1,1.4l0.7-1.6l2.1,0.1l0.3,0.4l3.4,3.2l1.5,0.3l2.3,1.5l1.9,0.8l0.3,0.9L52,79.2l1.9,0.6l2.1,0.3l1.5-0.3l1.7-1.6l0.3-1.8
	l0.9-0.4l0.9,1.2v1.6l-1.5,1.1l-1.2,0.8l-2.1,2l-2.5,2.9l-0.5,1.7l-0.5,2.2v2.2l-0.4,0.5l-0.1,1.4l-0.1,1.2l2.3,1.9l-0.2,1.6l1.2,1
	l-0.1,1.1l-1.8,3l-2.7,1.3l-3.7,0.5l-2-0.2l0.4,1.4l-0.4,1.8l0.3,1.2l-1.1,0.9l-1.9,0.3l-1.8-0.9l-0.7,0.6l0.2,2.4l1.2,0.8l1-0.8
	l0.5,1.3l-1.7,0.8l-1.5,1.6l-0.3,2.6l-0.4,1.4h-1.8l-1.5,1.3l-0.5,2l1.8,2l1.8,0.6l-0.6,2.4l-2.2,1.6l-1.2,3.3l-1.7,1.1l-0.8,1.4
	l0.6,3.1l1.2,1.7l-0.8-0.2l-1.7-0.5l-4.5-0.4l-0.8-1.7v-2.2l-1.2,0.2l-0.6-1l-0.2-3l1.4-1.2l0.6-1.8l-0.2-1.4l1-2.3l0.7-3.5
	l-0.2-1.5l0.8-0.5l-0.2-1l-0.9-0.5l0.6-1.1l-0.8-1l-0.4-2.9l0.8-0.5l-0.3-3l0.4-2.5l0.5-2.1l1.1-0.9L29,102v-2.2l1.4-1.5v-1.9l1-2.2
	v-2L31,91.9l-0.9-3.7l1.1-2.2l-0.2-2l0.6-1.9l1.2-2l1.3-1.3l-0.5-0.8l0.4-0.7l0-3.4l2-1l0.6-2.1l-0.2-0.5l1.5-1.8L40.3,69z"/>
<path class="st0" d="M44.2,68.9l-2.1-0.1l-0.7,1.6L40.3,69l-2.4-0.5l-1.5,1.8L35,70.6l-0.7-2.7l-1-2.2l0.6-1.9l-1-0.8l-0.2-1.4
	l-0.9-1.3l1.2-2.1l-0.8-1.6l0.4-0.6l-0.3-0.7l0.7-1v-1.6l0.1-1.3l0.4-0.6l-1.6-3l1.4,0.2h0.9l0.4-0.6l1.6-0.8l1-0.7l2.4-0.3
	l-0.2,1.4l0.2,0.7l-0.2,1.2l2,1.7l2.1,0.3l0.7,0.7l1.2,0.4l0.8,0.5h1.2l1.1,0.6l0.1,1.1l0.4,0.6v0.8h-0.5l0.7,2.2l3.5,0.1l-0.3,1.1
	l0.2,0.8l1,0.5l0.4,1.2l-0.3,1.5l-0.5,0.8l0.2,1.1l-0.6,0.4v-0.6l-1.7-1h-1.7l-3.2,0.6l-0.9,1.7l0,1l-0.7,2.4L44.2,68.9z"/>
<path class="st0" d="M53.8,85.7l2.5-2.9l2.1-2l1.2-0.8l1.5-1.1v-1.6L60.3,76l-0.9,0.4l0.4-1.2L60,74v-1.1l-0.7-0.4l-0.7,0.3L58,72.8
	L57.7,72l-0.2-1.8l-0.3-0.6L56,69l-0.8,0.4l-2-0.4l0.1-2.7l-0.5-1.1l0.6-0.4l-0.2-1.1l0.5-0.8l0.3-1.5l-0.4-1.2l-1-0.5l-0.2-0.8
	l0.3-1.1l-3.5-0.1l-0.7-2.2H49v-0.8l-0.4-0.6L48.5,53l-1.1-0.6h-1.2l-0.8-0.5l-1.2-0.4l-0.7-0.7l-2.1-0.3l-2-1.7l0.2-1.2l-0.2-0.7
	l0.2-1.4l-2.4,0.3l-1,0.7l-1.6,0.8l-0.4,0.6h-0.9l-1.4-0.2l-1,0.3L30,47.8l0.1-2.8l-1.5,1.1L27,46l-0.7-1l-1.2-0.1l0.4-0.8l-1-1.1
	l-0.8-1.7l0.5-0.3v-0.8l1.1-0.5l-0.2-1l0.5-0.6l0.1-0.9l2.1-1.2l1.5-0.3l0.2-0.3l1.7,0.1l0.8-5v-0.8l-0.3-1L31,27.8v-1.3l1-0.3
	l0.4,0.2l0.1-0.7l-1.1-0.2v-1.1h3.6l0.6-0.6l0.5,0.6l0.4,1.1l0.3-0.2l1,1l1.4-0.1l0.3-0.6l1.4-0.4l0.8-0.3l0.2-0.8l1.3-0.5l-0.1-0.4
	l-1.6-0.2l-0.2-1.2l0.1-1.2L40.5,20l0.3-0.2l1.4,0.2l1.5,0.5l0.5-0.4l1.3-0.3l2.1-0.7l0.7-0.7L48.1,18l1-0.1l0.4,0.4l-0.2,0.8
	l0.6,0.3l0.4,0.9l-0.5,0.6l-0.3,1.6l0.5,0.9l0.1,0.9l1.1,0.9l0.9,0.1l0.2-0.4l0.6-0.1l0.8-0.3l0.6-0.5l1,0.1l0.5-0.1l1,0.1l0.2-0.4
	l-0.3-0.4l0.2-0.5l0.8,0.2l0.9-0.2l1.1,0.4l0.8,0.4l0.6-0.5l0.4,0.1l0.2,0.5l0.9-0.1l0.7-0.7l0.6-1.4l1.1-1.7l0.6-0.1l0.4,1L67,24
	l1,0.3v1.3l-1.4,1.5l0.6,0.6l3.3,0.3l0.1,1.8l1.4-1.2l2.3,0.7l3.1,1.1l0.9,1.1l-0.3,1l2.1-0.5l3.6,1l2.8-0.1l2.7,1.5l2.4,2.1
	l1.4,0.5l1.6,0.1l0.7,0.6l0.6,2.3l0.3,1.1l-0.7,3.1l-1,1.2l-2.6,2.6L90.6,50l-1.4,1.6h-0.5L88.3,53l0.1,3.5l-0.5,2.9l-0.2,1.3
	l-0.6,0.8l-0.3,2.6l-1.9,2.6l-0.3,2l-1.5,0.9l-0.4,1.2h-2l-2.9,0.8l-1.3,0.9L74.4,73l-2.2,1.6l-1.6,2l-0.3,1.5l0.3,1.1l-0.3,2.1
	l-0.4,1l-1.3,1.2l-2,3.7L65,89l-1.3,1l-0.8,2.1l-1.2,1.3l-0.5-1.2l0.8-1l-1.1-1.5l-1.5-1.2L57.6,87l-0.7,0.1L55,85.4L53.8,85.7z"/>
<path class="st0" d="M33.5,141.5l-3.9,11.4h2l1.1,0.1l-0.6,1.3l-1.6,1l-0.9-0.1l-1.1-0.3l-1.4-1l-1.9-0.5l-2.3-1.8L21,150l1.4-7.9
	l1.5,0.6l-1.3,6.5l2.5,1.1l1-1.4l4.5-6.5l1.7-1.2L33.5,141.5z M34.3,67.8l0.7,2.7l1.3-0.3l0.2,0.5l-0.6,2.1l-2,1l0.1,3.4l-0.4,0.7
	l0.6,0.8L32.8,80l-1.2,2L31,83.9l0.2,2L30,88.1l0.8,3.8l0.5,0.4v2l-1,2.2v1.9l-1.4,1.5v2.2l0.6,2.3l-1.1,0.8l-0.5,2.1l-0.4,2.5
	l0.3,3l-0.7,0.5l0.4,2.9l0.8,1l-0.6,1.1l0.9,0.5l0.2,1l-0.8,0.5l0.2,1.5l-0.7,3.5l-1,2.3l0.2,1.4l-0.6,1.8l-1.4,1.2l0.2,3l0.7,1.1
	l1.2-0.2v2.2l0.8,1.7l4.5,0.4l1.7,0.5H32l-0.9,0.7l-1.7,1.1l-4.2,7.3l-0.8,0.1l-2.1-1l1.8-6.5l0,0l-2.3-1.7l-0.6-1.9l0.5-1.7
	l-0.9-1.9l-0.2-5l0.8-2.7l2-2.1l-2.8-0.8l1.8-2.3l0.6-4.3l2,0.9l1-5.2l-1.2-0.7l-0.6,3.2l-1.2-0.4l0.6-3.6l0.6-4.5l0.9-1.6l-0.5-2.3
	l-0.1-2.6l0.8-0.1l1.1-3.7l1.3-3.6l0.8-3.3l-0.4-3.2l0.6-1.8l-0.2-2.6l1.1-2.6l0.3-4l0.6-4.2l0.6-4.4l-0.1-3.2l-0.4-2.7l1-0.5l0.5-1
	l0.9,1.3l0.2,1.4l1,0.8l-0.6,1.9L34.3,67.8z"/>
<path class="st0" d="M21.1,27.8l-0.8-0.4l-0.9-0.6L18.9,27l-1.6-0.2L16.9,26h-0.3l-1.9-1l-0.2-0.6l0.7-0.1l-0.1-1l0.4-0.7l0.9-0.1
	l0.8-1.1l0.7-1L17.2,20l0.4-1.1l-0.4-1.7l0.4-0.5l-0.3-1.6l-0.8-1l0.2-0.9l0.6,0.1l0.4-0.6l-0.4-1.1l0.2-0.3l1,0.1l1.4-1.3l0.8-0.2
	V9.5l0.3-1.6L22,7.1h1.1l0.1-0.4l1.5,0.2l1.5-0.9l0.7-0.4l0.9-0.9l0.6,0.1l0.5,0.5l-0.4,0.6l-1.2,0.3L26.9,7l-0.7,0.5l-0.5,0.7
	l-0.2,1.3l-0.5,1.1l1,0.1l0.2,0.9l0.4,0.4l0.1,0.7l-0.2,0.7l0.1,0.4L27,14l0.4,0.6l2.4-0.2l1.1,0.2l1.3,1.6l0.8-0.2l1.3,0.1l1-0.2
	l0.7,0.3l-0.3,1l-0.4,0.6L35,19.2l0.4,1.2l0.5,0.5l0.1,0.4L35,22.3l0.7,0.4l0.5,0.6l0.5,1.8l-0.3,0.2L36,24.3l-0.5-0.6l-0.6,0.6
	h-3.6v1.1l1.1,0.2l-0.1,0.7L32,26.2l-1,0.3v1.3l0.8,0.7l0.3,1v0.8l-0.8,5l-0.9-1h-0.5l1.2-1.9l-1.4-0.9l-1.1,0.2l-0.7-0.3l-1,0.5
	l-1.4-0.2l-1.1-1.9l-0.9-0.5l-0.6-0.9l-1.2-0.9L21.1,27.8z"/>
<path class="st0" d="M12,33.7l1-1.4l-0.4-0.8l-0.7,0.9l-1.1-0.8l0.4-0.5l-0.3-1.7l0.6-0.3l0.3-1.2l0.7-1.2l-0.1-0.7l1-0.4l1.3-0.7
	l1.9,1h0.3l0.5,0.8l1.6,0.2l0.5-0.3l0.9,0.6l0.8,0.4l0.2,1.4l-0.6,1.2l-2,1.9L16.5,33l-1.1,1.6l-0.4,1.2L14,36.6l-0.8-0.9l-0.8-0.2
	l-0.8,0.2l-0.1-0.7l0.5-0.4L12,33.7z"/>
<path class="st0" d="M47.2,139.2l2.2-1.8l1.6,0.7l1.1-1.1l1.5,1.3l-0.5,1l-2.5,0.9l-0.8-1.1l-1.6,1.4L47.2,139.2z"/>
<path class="st0" d="M63.2,22.9l-0.7,0.7l-0.9,0.1l-0.2-0.5l-0.4-0.1l-0.6,0.5l-0.8-0.4l0.5-0.8l0.2-0.8l0.3-0.8l-0.7-1.1l-0.2-1.2
	l1-1.6l0.6,0.2l1.3,0.4l2,1.5l0.3,0.8l-1.1,1.7L63.2,22.9z"/>
<path class="st0" d="M49.9,12.1l1.2,0.7l1.1,1.2v1H53l1,0.9l0.7,0.6l-0.3,1.7l-1.1,0.5l0.1,0.4l-0.3,1l0.8,1.3h0.6l0.2,1l1.1,1.6
	l-0.5,0.1l-1-0.1l-0.6,0.5L53,24.7l-0.6,0.1l-0.2,0.4l-0.9-0.1l-1.1-0.9L50,23.4l-0.5-0.9l0.3-1.6l0.5-0.6l-0.4-0.9l-0.6-0.3
	l0.2-0.8l-0.4-0.4l-1,0.1l-1.2-1.4l0.5-0.5v-0.9l1.1-0.3l0.5-0.3l-0.6-0.7l0.2-0.7L49.9,12.1z"/>
<path class="st0" d="M31.8,60.2l-0.5,1l-1,0.5l-1.9-1.1l-0.2-0.8l-3.6-1.9l-3.3-2.1l-1.4-1.2l-0.8-1.6l0.3-0.5l-1.6-2.5l-1.8-3.5
	l-1.7-3.7l-0.8-0.8L13,40.7l-1.4-1.2l-1.3-0.7l0.6-0.8L10,36.2l0.6-1.3l1.4-1.2l0.2,0.8l-0.5,0.4l0.1,0.7l0.8-0.2l0.8,0.2l0.8,0.9
	l1.1-0.8l0.4-1.2l1.1-1.6l2.2-0.7l2-1.9l0.6-1.2l-0.2-1.4l0.5-0.2l1.2,0.9l0.6,0.9l0.9,0.5l1.1,1.9l1.4,0.2l1-0.5l0.7,0.3l1.1-0.2
	l1.4,0.9l-1.2,1.9h0.5l0.9,1l-1.7-0.1l-0.2,0.3l-1.5,0.3l-2.1,1.2L25.5,38L25,38.6l0.2,1l-1.1,0.5V41l-0.5,0.3l0.8,1.7l1,1.1
	L25,44.9l1.2,0.1l0.7,1l1.6,0l1.5-1.1L30,47.8l0.8,0.2l1-0.3l1.6,3L33,51.3l0,1.3v1.6l-0.7,1l0.3,0.7l-0.4,0.6l0.8,1.6L31.8,60.2z"
	/>
<path class="st0" d="M44.5,69.3l0.7-2.3l0-1l0.9-1.7l3.2-0.6h1.7l1.7,1v0.6l0.5,1.1L53.3,69l1.9,0.4L56,69l1.2,0.5l0.3,0.6l0.1,1.9
	l0.2,0.8l0.7,0.1l0.7-0.3l0.7,0.4V74l-0.2,1.2l-0.4,1.2l-0.3,1.8l-1.7,1.6l-1.5,0.3l-2.1-0.3L52,79.2l1.8-3.1l-0.3-0.9l-1.9-0.8
	l-2.2-1.5l-1.5-0.3L44.5,69.3z"/>
<path class="st0" d="M54.7,16.5l2.2,0.4l0.2-0.3l1.5-0.1l2,0.5l-1,1.6l0.2,1.3l0.7,1.1l-0.3,0.8L60,22.5l-0.5,0.8l-1.1-0.4l-0.9,0.2
	l-0.8-0.2l-0.2,0.5l0.3,0.4l-0.2,0.4l-1-0.1l-1.1-1.6l-0.2-1h-0.6L53,20.1l0.3-1l-0.1-0.4l1.1-0.5L54.7,16.5z"/>
<path class="st0" d="M53.8,85.7l1.2-0.2l1.8,1.6l0.7-0.1l1.9,1.4l1.5,1.2l1.1,1.5l-0.8,1l0.5,1.2l-0.8,1.4L58.8,96l-1.4-0.4l-1,0.2
	l-1.7-1l-1.2,0.1l-1.1-1.2l0.1-1.4l0.4-0.5v-2.2l0.5-2.2L53.8,85.7z"/>
<path class="st0" d="M28.5,5.8l0,0.4l-1.1,0.2L28,7.3v1l-0.8,1.1l0.7,1.5l0.8-0.1l0.4-1.3l-0.6-0.7l-0.1-1.4l2.3-0.8l-0.3-0.9
	L31.1,5l0.7,1.3h1.3l1.2,1l0.1,0.6H36l2-0.2l1,1l1.4,0.2l1-0.6V7.9l2.3-0.1h2.2l-1.6,0.6L45,9.2l1.5,0.1l1.4,0.9l0.3,1.5l1-0.1
	l0.7,0.4l-1.4,1.1l-0.2,0.7l0.6,0.7l-0.5,0.3l-1.1,0.3V16l-0.5,0.5l1.3,1.4l0.2,0.5l-0.7,0.7l-2.1,0.7l-1.3,0.3l-0.5,0.4l-1.5-0.5
	l-1.4-0.2l-0.3,0.2l0.8,0.5l-0.1,1.2l0.2,1.2l1.6,0.2l0.1,0.4L41.9,24l-0.2,0.8l-0.8,0.3l-1.4,0.4l-0.3,0.6l-1.4,0.1l-1-1l-0.5-1.8
	l-0.5-0.6l-0.7-0.4l0.9-0.9L35.9,21l-0.5-0.5L35,19.2l0.2-1.3l0.4-0.6l0.3-1L35.3,16l-1,0.2l-1.3-0.1l-0.8,0.2l-1.3-1.6l-1.1-0.2
	l-2.4,0.2L27,14l-0.5-0.2l-0.1-0.4l0.2-0.7L26.5,12l-0.4-0.4l-0.2-0.9l-1-0.1l0.5-1.1l0.2-1.3l0.5-0.7L26.9,7l0.5-0.9L28.5,5.8z"/>
<g id="zona">
	<path class="st2" d="M59.3,76.3L59,78.1l-1.7,1.6L55.9,80l-2.1-0.3l-1.9-0.6l1.8-3.1l-0.3-0.9l-1.9-0.8l-2.3-1.5l-1.5-0.3l-3.4-3.2
		l-0.3-0.4l-2.1,0c-0.8,6.9-2.2,11.7-0.8,13.2c1.3,1.2,7.4,3.5,12.4,4l0.1-0.4l2.5-2.9l2.1-2l1.2-0.8l1.5-1.1v-1.6l-0.9-1.2
		L59.3,76.3z"/>
	<path class="st2" d="M87.1,61.5l0.6-0.8l0.2-1.3l0.5-2.9L88.2,53l0.5-1.4h0.5l1.4-1.6l1.2-2.1l2.6-2.6l0.9-1.2L96,41l-0.3-1.1
		l-0.6-2.3L94.4,37l-1.6-0.1l-1.4-0.5L89,34.3l-2.7-1.5l-2.8,0.1l-3.6-1l-2.2,0.6l0.3-1l-0.9-1.1l-3.1-1.1l-2.3-0.7l-1.4,1.2
		l-0.1-1.8l-3.3-0.3l-0.6-0.6l1.4-1.5l-0.1-1.3l-1-0.3l-1-3.2l-0.4-1l-0.6,0.1l-1.1,1.7l-0.6,1.4l-0.7,0.7l-0.9,0.1l-0.3-0.5
		l-0.4-0.1l-0.6,0.5l-0.8-0.4l-1-0.4l-0.9,0.2l-0.7-0.2l-0.2,0.5l0.3,0.4l-0.2,0.4l-1-0.1l-0.4,0.1l-1-0.1l-0.6,0.5l-0.8,0.3
		l-0.6,0.1l-0.2,0.4l-0.9-0.1L50,24.2l-0.1-0.9l-0.5-0.9l0.3-1.6l0.5-0.6l-0.4-0.9l-0.6-0.3l0.2-0.8L49,17.9L48,18l0.2,0.5l-0.7,0.7
		l-2.1,0.7l-1.3,0.3l-0.5,0.4l-1.5-0.5l-1.4-0.2l-0.3,0.2l0.8,0.5l-0.1,1.2l0.3,1.2l1.6,0.2l0.1,0.4L41.9,24l-0.2,0.8l-0.8,0.3
		l-1.4,0.4l-0.4,0.6l-1.4,0.1l-1-1l-0.3,0.2L36,24.3l-0.5-0.6l-0.6,0.6h-3.6v1.1l1.1,0.2l-0.1,0.7L32,26.2l-1,0.3v1.3l0.8,0.7l0.2,1
		l0,0.8l-0.8,5l-1.7-0.1l-0.2,0.3l-1.5,0.3l-2.1,1.2L25.5,38L25,38.6l0.2,1l-1.1,0.5V41l-0.5,0.3l0.8,1.7l1,1.1L25,44.9l1.2,0.1
		l0.7,1l1.6,0l1.5-1.1l-0.1,2.8l0.9,0.2l1-0.3l1.4,0.2h1l0.4-0.6l1.6-0.8l1-0.7l2.4-0.3l-0.2,1.4l0.2,0.7l-0.2,1.2l2,1.7l2.1,0.3
		l0.7,0.7l1.2,0.4l0.8,0.5h1.2l1.1,0.6l0.1,1.1l0.4,0.6v0.8h-0.5l0.7,2.2l3.5,0.1L52.4,59l0.2,0.8l1,0.5l0.4,1.2L53.7,63l-0.5,0.8
		l0.2,1.1l-0.6,0.4l0.5,1.1L53.2,69l2,0.4l0.8-0.4l1.2,0.5l0.3,0.6l0.2,1.9l0.2,0.8l0.7,0.1l0.7-0.3l0.7,0.4V74l-0.2,1.2l-0.4,1.2
		l0.9-0.4l0.9,1.2v1.6l-1.5,1.1l-1.2,0.8l-2.1,2l-2.5,2.9l1.2-0.2l0.8,0.7c2.3,0,7.5-1.1,12.9-2.7l1.2-1.1l0.4-1l0.3-2.1l-0.3-1.1
		l0.3-1.5l1.6-2l2.1-1.6l2.1-0.6l1.3-0.9l2.9-0.8h2l0.4-1.2l1.5-0.9l0.3-2l1.9-2.6L87.1,61.5z"/>
	<path class="st2" d="M20.5,22.3c-0.5,1.5-1.3,3.1-2,4.7l0.4,0l0.5-0.3l0.9,0.6l0.8,0.4l0.5-0.2l1.2,0.9l0.6,0.9l0.9,0.5l1.1,1.9
		l1.4,0.2l1-0.5l0.7,0.3l1.1-0.2l1.4,0.9l-1.2,1.9h0.5l0.9,1l0.8-5l0-0.8l-0.3-1l-0.8-0.7v-1.3l1-0.3l0.4,0.2l0.1-0.7l-1.1-0.2v-1.1
		h3.6l0.6-0.6l0.5,0.6l0.3,1.1l0.3-0.2l-0.6-1.8l-0.5-0.6l-0.7-0.4l0.9-0.9l0-0.4l-0.5-0.5L35,19.2l0.1-1.3l0.4-0.6l0.3-1L35.2,16
		l-1,0.2l-1.3-0.1l-0.7,0.2l-1.3-1.6l-1.1-0.2l-2.4,0.2L26.9,14l-0.5-0.2l-0.1-0.4l0.2-0.7L26.5,12L26,11.6l-0.2-0.9l-0.9-0.1
		l0.5-1.1l0.2-1.3l0.5-0.7L26.8,7l0.5-0.9l1.2-0.3l0.4-0.6l-0.5-0.5l-0.7-0.1l-0.9,0.9l-0.7,0.4l-1.5,0.9l-1.5-0.1L23.1,7h-1.2
		L21,7.8c-0.3,0.7-0.4,1.5-0.5,2.3C20.3,12.4,22.1,17.5,20.5,22.3z"/>
	<path class="st2" d="M20.2,27.3l-0.9-0.6L18.8,27l-0.4,0c-0.9,1.9-1.5,3.9-1.9,6l2.1-0.7l2-1.9l0.6-1.2L21,27.8L20.2,27.3z"/>
	<path class="st2" d="M30.8,48l-0.9-0.2l0.1-2.8l-1.5,1.1L26.9,46l-0.7-1L25,44.9l0.4-0.8l-1-1.1l-0.8-1.7l0.5-0.3v-0.8l1.1-0.5
		l-0.2-1l0.5-0.6l0.1-0.9l2.1-1.2l1.5-0.3l0.2-0.3l1.7,0.1l-0.9-1h-0.5l1.2-1.9l-1.4-0.9l-1.1,0.2l-0.7-0.3l-1,0.5l-1.4-0.2
		l-1.1-1.9l-0.9-0.5l-0.6-0.9l-1.2-0.9L21,27.8l0.3,1.4l-0.6,1.2l-2,1.9L16.6,33c-0.2,1.7,0,3.5,0.6,5.1c2.3,5.9,1.1,13.6,12.2,15.6
		c1.1,0.2,2.2,0.5,3.3,0.8l0.1-0.2v-1.6l0.1-1.3l0.4-0.6l-1.6-3L30.8,48z"/>
	<path class="st2" d="M52.6,59.6l-0.2-0.8l0.3-1.1l-3.5-0.1l-0.7-2.2h0.5v-0.8l-0.4-0.6L48.5,53l-1.1-0.6h-1.2l-0.8-0.5l-1.2-0.4
		l-0.7-0.7l-2.1-0.3l-2-1.7l0.2-1.2l-0.2-0.7l0.2-1.4l-2.4,0.3l-1,0.7l-1.6,0.8l-0.4,0.6h-1l-1.4-0.2l1.6,3l-0.4,0.6l-0.1,1.3v1.6
		l-0.1,0.2c8.3,2.6,10,8.3,9.3,14.4l2.1,0.1l0.3,0.4l0.8-2.3v-1l0.9-1.7l3.2-0.6H51l1.7,1v0.6l0.6-0.4l-0.2-1.1l0.5-0.8l0.4-1.6
		l-0.4-1.2L52.6,59.6z"/>
	<path class="st3" d="M63.1,22.9l-0.7,0.7l-0.9,0.1l-0.2-0.5l-0.4-0.1l-0.6,0.5l-0.8-0.4l0.5-0.8l0.2-0.8l0.3-0.8l-0.7-1.1l-0.1-1.2
		l1-1.6l0.6,0.2l1.4,0.4l1.9,1.5l0.3,0.8l-1.1,1.7L63.1,22.9z"/>
	<path class="st3" d="M49.8,12.1l1.2,0.7l1.1,1.2l0,1h0.7l1,0.9l0.7,0.6l-0.3,1.7l-1.1,0.5l0.1,0.4l-0.3,1l0.8,1.3h0.6l0.2,1
		l1.1,1.6l-0.4,0.1l-1-0.1l-0.6,0.5l-0.8,0.3l-0.6,0.1l-0.2,0.4l-0.9-0.1L50,24.2l-0.1-0.9l-0.5-0.9l0.3-1.6l0.5-0.6l-0.4-0.9
		l-0.6-0.3l0.2-0.8L49,17.9L48,18l-1.2-1.4l0.5-0.5v-0.9l1.1-0.3l0.5-0.3l-0.6-0.7l0.2-0.7L49.8,12.1z"/>
	<path class="st3" d="M44.4,69.3l0.7-2.3v-1l0.9-1.7l3.2-0.6H51l1.7,1v0.6l0.5,1.1l0,2.6l2,0.4l0.8-0.4l1.2,0.5l0.3,0.6l0.2,1.9
		l0.2,0.8l0.7,0.1l0.7-0.3l0.7,0.4V74l-0.2,1.2l-0.4,1.2L59,78.2l-1.7,1.6l-1.5,0.3l-2.1-0.3L52,79.2l1.8-3.1l-0.3-0.9l-1.9-0.8
		l-2.3-1.5l-1.5-0.3L44.4,69.3z"/>
	<path class="st3" d="M54.7,16.5l2.2,0.4l0.2-0.3l1.5-0.1l2,0.5l-1,1.6l0.1,1.3l0.7,1.1l-0.3,0.8l-0.2,0.8l-0.5,0.8l-1-0.4l-0.9,0.2
		l-0.7-0.2l-0.2,0.5l0.3,0.4l-0.2,0.4l-1-0.1l-1.1-1.6l-0.2-1h-0.6L53,20l0.3-1l-0.1-0.4l1.1-0.5L54.7,16.5z"/>
	<path class="st3" d="M28.5,5.8v0.4l-1.1,0.2L28,7.3v1l-0.8,1.1l0.7,1.5l0.8-0.1L29,9.3l-0.6-0.7l-0.1-1.4l2.3-0.8l-0.2-0.9L31,5
		l0.7,1.3H33l1.2,1l0.1,0.6h1.7l2-0.2l1.1,1l1.4,0.2l1-0.6V7.9l2.3-0.1h2.2l-1.6,0.6L45,9.2l1.5,0.1l1.4,0.9l0.3,1.5l1-0.1l0.7,0.4
		l-1.5,1.1l-0.2,0.7l0.6,0.7l-0.5,0.3l-1.1,0.3V16l-0.5,0.5L48,18l0.2,0.5l-0.7,0.7l-2.1,0.7l-1.3,0.3l-0.5,0.4l-1.5-0.5l-1.4-0.2
		l-0.3,0.2l0.8,0.5l-0.1,1.2l0.3,1.2l1.6,0.2l0.1,0.4L41.9,24l-0.2,0.8l-0.8,0.3l-1.4,0.4l-0.4,0.6l-1.4,0.1l-1-1l-0.6-1.8l-0.5-0.6
		L35,22.3l0.9-0.9L35.9,21l-0.5-0.5L35,19.2l0.1-1.3l0.4-0.6l0.3-1L35.2,16l-1,0.2l-1.3-0.1l-0.7,0.2l-1.3-1.6l-1.1-0.2l-2.4,0.2
		L26.9,14l-0.5-0.2l-0.1-0.4l0.2-0.7L26.5,12L26,11.6l-0.2-0.9l-0.9-0.1l0.5-1.1l0.2-1.3l0.5-0.7L26.8,7l0.5-0.9L28.5,5.8z"/>
</g>
<path class="st4" d="M35.3,153.9l-1.8,0.2l-0.9-1.1l-1.1-0.1h-2l3.9-11.4l0.7,1.4l-3,6.7l2.4,1.9l2.6,0.8L35.3,153.9z M40.2,69
	l1.1,1.4l0.7-1.6l2.1,0.1l0.3,0.4l3.4,3.2l1.5,0.3l2.3,1.5l1.9,0.8l0.3,0.9l-1.8,3.1l1.9,0.6l2.1,0.3l1.5-0.3l1.7-1.6l0.3-1.8
	l0.9-0.4l0.9,1.2v1.6l-1.5,1.1l-1.2,0.8l-2.1,2l-2.5,2.9l-0.5,1.7l-0.5,2.2v2.2l-0.4,0.5l-0.1,1.4l-0.1,1.2l2.3,1.9l-0.2,1.6l1.2,1
	l-0.1,1.1l-1.8,3l-2.7,1.3l-3.7,0.5l-2-0.2l0.4,1.4l-0.4,1.8l0.3,1.2l-1.1,0.9l-1.9,0.3l-1.8-0.9l-0.7,0.6l0.3,2.4l1.2,0.8l1-0.8
	l0.5,1.3l-1.7,0.8l-1.5,1.6l-0.3,2.6l-0.4,1.4h-1.8l-1.4,1.3l-0.5,2l1.8,2l1.8,0.6l-0.6,2.4l-2.2,1.6l-1.2,3.2l-1.7,1.1l-0.8,1.4
	l0.6,3.1l1.2,1.7l-0.8-0.2l-1.7-0.5l-4.5-0.4l-0.8-1.7v-2.2l-1.2,0.2l-0.6-1l-0.2-3l1.4-1.2l0.6-1.8l-0.2-1.4l1-2.3l0.7-3.5
	l-0.2-1.5l0.8-0.5l-0.2-1l-0.9-0.5l0.6-1.1l-0.8-1l-0.4-2.9l0.7-0.5l-0.3-3l0.4-2.5l0.5-2.1l1.1-0.9l-0.6-2.2v-2.2l1.4-1.5v-1.9
	l1.1-2.2v-2l-0.5-0.4L30,88.1l1.1-2.2l-0.2-2l0.7-1.9l1.2-2l1.3-1.3l-0.5-0.8l0.4-0.7l-0.1-3.4l2-1l0.6-2.1l-0.2-0.5l1.5-1.8
	L40.2,69z"/>
<path class="st4" d="M53.8,85.7l2.5-2.9l2.1-2l1.2-0.8l1.5-1.1v-1.6L60.2,76l-0.9,0.4l0.4-1.2l0.2-1.2v-1.1l-0.7-0.4l-0.7,0.3
	l-0.7-0.1L57.7,72l-0.2-1.8l-0.3-0.6L55.9,69l-0.8,0.4l-2-0.4l0.1-2.7l-0.5-1.1l0.6-0.4l-0.2-1.1l0.5-0.8l0.3-1.5l-0.4-1.2l-1-0.5
	l-0.2-0.8l0.3-1.1l-3.5-0.1l-0.7-2.2h0.5v-0.8l-0.4-0.6L48.5,53l-1.1-0.6h-1.2l-0.8-0.5l-1.2-0.4l-0.7-0.7l-2.1-0.3l-2-1.7l0.2-1.2
	l-0.2-0.7l0.2-1.4l-2.4,0.3l-1,0.7l-1.6,0.8l-0.4,0.6h-1l-1.4-0.2l-1,0.3l-0.9-0.2l0.2-2.7l-1.5,1.1L26.9,46l-0.7-1L25,44.9l0.4-0.8
	l-1-1.1l-0.8-1.7l0.5-0.3v-0.8l1.1-0.5l-0.2-1l0.5-0.6l0.1-0.9l2.1-1.2l1.5-0.3l0.2-0.3l1.7,0.1l0.8-5l0.1-0.8l-0.3-1l-0.8-0.7v-1.4
	l1-0.3l0.4,0.2l0.1-0.7l-1.1-0.2v-1.1h3.6l0.6-0.6l0.5,0.6l0.3,1.1l0.3-0.2l1,1l1.4-0.1l0.4-0.6l1.4-0.4l0.8-0.3l0.2-0.8l1.3-0.5
	l-0.1-0.4l-1.6-0.2l-0.3-1.2l0.1-1.2L40.5,20l0.3-0.2l1.4,0.2l1.5,0.5l0.5-0.4l1.3-0.3l2.1-0.7l0.7-0.7L48,18l1-0.1l0.4,0.4
	l-0.2,0.8l0.6,0.3l0.4,0.9l-0.5,0.6l-0.3,1.6l0.5,0.9l0.1,0.9l1.1,0.9l0.9,0.1l0.2-0.4l0.6-0.1l0.8-0.3l0.6-0.5l1,0.1l0.4-0.1l1,0.1
	l0.2-0.4l-0.3-0.4l0.2-0.5l0.7,0.2l0.9-0.2l1,0.4l0.8,0.4l0.6-0.5l0.4,0.1l0.3,0.5l0.9-0.1l0.7-0.7l0.6-1.4l1.1-1.7l0.6-0.1l0.4,1
	l1,3.2l1,0.3l0.1,1.3l-1.4,1.5l0.6,0.6l3.3,0.3l0.1,1.8l1.4-1.2l2.3,0.7l3.1,1.1l0.9,1.1l-0.3,1l2.2-0.6l3.6,1l2.8-0.1l2.7,1.5
	l2.3,2.1l1.4,0.5l1.6,0.1l0.7,0.6l0.6,2.3L96,41l-0.7,3.1l-0.9,1.2l-2.6,2.6L90.6,50l-1.4,1.6h-0.5L88.2,53l0.1,3.5l-0.5,2.9
	l-0.2,1.3L87,61.5l-0.3,2.6l-1.9,2.6l-0.3,2L83,69.5l-0.4,1.2h-2l-2.9,0.8l-1.3,0.9L74.3,73l-2.2,1.6l-1.6,2l-0.3,1.5l0.3,1.1
	l-0.3,2.1l-0.4,1l-1.3,1.2l-2,3.7L64.9,89l-1.3,1l-0.8,2.1l-1.2,1.3l-0.5-1.2l0.8-1l-1.1-1.5l-1.5-1.2L57.5,87l-0.7,0.1L55,85.4
	L53.8,85.7z"/>
<path class="st4" d="M44.1,68.9L42,68.8l-0.7,1.6l-1-1.4l-2.4-0.5l-1.5,1.8L35,70.6l-0.7-2.7l-1-2.2l0.6-1.9l-1-0.8l-0.2-1.4
	l-0.9-1.3l1.2-2.1l-0.8-1.6l0.4-0.6l-0.3-0.7l0.7-1v-1.6l0.1-1.3l0.4-0.6l-1.6-3l1.4,0.2h1l0.4-0.6l1.6-0.8l1-0.7l2.4-0.3l-0.2,1.4
	l0.2,0.7l-0.2,1.2l2,1.7l2.1,0.3l0.7,0.7l1.2,0.4l0.8,0.5h1.2l1.1,0.6l0.1,1.1l0.4,0.6v0.8h-0.5l0.7,2.2l3.5,0.1l-0.3,1.1l0.2,0.8
	l1,0.5l0.4,1.2l-0.3,1.5l-0.5,0.8l0.2,1.1l-0.6,0.4v-0.6l-1.7-1h-1.7l-3.2,0.6L45.3,66v1l-0.7,2.4L44.1,68.9z"/>
<path class="st4" d="M31.7,60.2l-0.5,1l-1,0.5l-1.9-1.1l-0.2-0.8l-3.6-1.9l-3.3-2.1l-1.4-1.2l-0.8-1.6l0.3-0.5l-1.6-2.5L16,46.6
	l-1.7-3.7l-0.8-0.8L13,40.7l-1.5-1.2l-1.3-0.7l0.6-0.8l-0.9-1.8l0.6-1.3l1.5-1.2l0.2,0.8l-0.5,0.4v0.7l0.8-0.2l0.8,0.2l0.8,0.9
	l1-0.8l0.4-1.2l1.2-1.6l2.2-0.7l2-1.9l0.6-1.2L21,27.8l0.5-0.2l1.2,0.9l0.6,0.9l0.9,0.5l1.1,1.9l1.4,0.2l1-0.5l0.7,0.3l1.1-0.2
	l1.4,0.9l-1.2,1.9h0.5l0.9,1l-1.7-0.1l-0.2,0.3l-1.5,0.3l-2.1,1.2L25.4,38l-0.5,0.6l0.2,1L24,40.2V41l-0.5,0.3l0.8,1.7l1,1.1
	L25,44.9l1.2,0.1l0.7,1l1.6,0l1.5-1.1l-0.1,2.8l0.9,0.2l1-0.3l1.6,3L33,51.4l-0.1,1.3v1.6l-0.7,1l0.3,0.7l-0.4,0.6l0.8,1.6
	L31.7,60.2z"/>
<path class="st4" d="M33.5,141.5l-3.9,11.4h2l1.1,0.1l-0.6,1.3l-1.6,1l-0.9-0.1l-1.1-0.3l-1.3-1l-1.9-0.5l-2.3-1.8L21,150l1.4-7.9
	l1.5,0.6l-1.3,6.5l2.4,1.1l1-1.4l4.5-6.5l1.7-1.2L33.5,141.5z M34.2,67.8l0.8,2.7l1.3-0.3l0.2,0.5l-0.6,2.1l-2,1l0.1,3.4l-0.4,0.7
	l0.5,0.8L32.8,80l-1.2,2l-0.7,1.9l0.2,2L30,88.1l0.9,3.8l0.5,0.4v2l-1,2.2v1.9l-1.4,1.5v2.2l0.6,2.3l-1.1,0.8l-0.5,2.1l-0.4,2.5
	l0.3,3l-0.8,0.5l0.4,2.9l0.8,1l-0.6,1.1l0.9,0.5l0.2,1l-0.8,0.5l0.2,1.5l-0.7,3.5l-1,2.3l0.2,1.4l-0.6,1.8l-1.4,1.2l0.2,3l0.6,1.1
	l1.2-0.2v2.2l0.8,1.7l4.5,0.4l1.7,0.5H32l-0.9,0.7l-1.7,1.1l-4.2,7.3l-0.8,0.1l-2.1-1l1.8-6.5l0,0l-2.3-1.7l-0.6-1.9l0.5-1.7
	l-0.9-1.9l-0.2-5l0.8-2.7l2-2.1l-2.8-0.8l1.8-2.3l0.6-4.3l2,0.9l1-5.2l-1.2-0.7l-0.6,3.2l-1.1-0.4l0.6-3.6l0.6-4.5l0.9-1.6l-0.5-2.3
	l-0.2-2.6l0.8-0.1l1.1-3.7l1.3-3.6l0.8-3.3l-0.4-3.2l0.5-1.8l-0.2-2.6l1.1-2.6l0.3-4l0.6-4.2l0.6-4.4l-0.1-3.2l-0.4-2.7l1-0.5l0.5-1
	l0.9,1.3l0.2,1.4l1,0.8l-0.6,1.9L34.2,67.8z"/>
<path class="st4" d="M47.2,139.2l2.2-1.8l1.6,0.7l1.1-1.1l1.5,1.3l-0.5,1l-2.5,0.9l-0.8-1.1l-1.6,1.4L47.2,139.2z"/>
<path class="st4" d="M53.8,85.7l1.2-0.2l1.8,1.6l0.7-0.1l1.9,1.4l1.5,1.2l1.1,1.5l-0.8,1l0.5,1.2l-0.8,1.4L58.7,96l-1.4-0.4l-1,0.2
	l-1.7-1l-1.2,0.1l-1.1-1.2l0.2-1.4l0.4-0.5v-2.2l0.5-2.2L53.8,85.7z"/>
<path class="st4" d="M21,27.8l-0.8-0.4l-0.9-0.6L18.8,27l-1.6-0.2L16.8,26h-0.3l-1.8-1l-0.2-0.6l0.7-0.1l0-1l0.4-0.7l0.9-0.1
	l0.8-1.1l0.7-1L17.1,20l0.4-1.1l-0.4-1.7l0.4-0.5l-0.3-1.6l-0.8-1l0.2-0.9l0.6,0.1l0.4-0.6l-0.4-1.1l0.2-0.3l1,0.1l1.4-1.3l0.8-0.2
	V9.5l0.3-1.6l1.1-0.9H23l0.1-0.4l1.5,0.2l1.5-0.9l0.7-0.4l0.9-0.9l0.7,0.1l0.5,0.5l-0.4,0.6l-1.2,0.3L26.8,7l-0.7,0.5l-0.5,0.7
	l-0.2,1.3l-0.5,1.1l0.9,0.1l0.2,0.9l0.4,0.4l0.1,0.7l-0.2,0.7l0.1,0.4l0.5,0.2l0.5,0.6l2.4-0.2l1.1,0.2l1.3,1.6l0.7-0.2l1.3,0.1
	l1-0.2l0.7,0.3l-0.3,1l-0.4,0.6L35,19.2l0.4,1.2l0.5,0.5l0.1,0.4L35,22.3l0.7,0.4l0.5,0.6l0.6,1.8l-0.3,0.2L36,24.3l-0.5-0.6
	l-0.6,0.6h-3.6v1.1l1.1,0.2l-0.1,0.7L32,26.2l-1,0.3v1.3l0.8,0.7l0.2,1l0,0.8l-0.8,5l-0.9-1h-0.5l1.2-1.9l-1.4-0.9l-1.1,0.2
	l-0.7-0.3l-1,0.5l-1.4-0.2l-1.1-1.9l-0.9-0.5l-0.6-0.9l-1.2-0.9L21,27.8z"/>
<path class="st4" d="M12,33.7l1-1.4l-0.4-0.8l-0.7,0.9l-1.1-0.8l0.4-0.5l-0.3-1.7l0.6-0.3l0.3-1.2l0.7-1.2l-0.1-0.7l1-0.4l1.3-0.7
	l1.8,1h0.3l0.5,0.8l1.6,0.2l0.5-0.3l0.9,0.6l0.8,0.4l0.3,1.4l-0.6,1.2l-2,1.9L16.5,33l-1.1,1.6L15,35.8l-1,0.8l-0.8-0.9l-0.8-0.2
	l-0.8,0.2v-0.7l0.5-0.4L12,33.7z"/>
<circle class="st5" cx="42.8" cy="9.9" r="0.8"/>
<circle class="st5" cx="22.8" cy="9.9" r="0.8"/>
<circle class="st5" cx="18.1" cy="43.7" r="0.8"/>
<circle class="st5" cx="34.6" cy="61.4" r="0.8"/>
<circle class="st5" cx="55.4" cy="71" r="0.8"/>
<circle class="st5" cx="43.3" cy="107.1" r="0.8"/>
<circle class="st5" cx="72.6" cy="45.5" r="0.8"/>
<text transform="matrix(1 0 0 1 44.02 112.3)" class="st5 st6 st7">Argentina</text>
<text transform="matrix(1 0 0 1 56.23 68.88)" class="st5 st6 st7">Paraguay</text>
<text transform="matrix(1 0 0 1 11.92 65.97)" class="st5 st6 st7">Bolivia</text>
<text transform="matrix(1 0 0 1 2.73 48.52)" class="st5 st6 st7">Perú</text>
<text transform="matrix(1 0 0 1 73.14 44.77)" class="st5 st6 st7">Brasil</text>
<text transform="matrix(1 0 0 1 0 6.37)" class="st5 st6 st7">Colombia</text>
<text transform="matrix(1 0 0 1 43.49 8.93)" class="st5 st6 st7">Venezuela</text>
</svg>
