<?xml version="1.0" encoding="utf-8"?>
<!-- Generator: Adobe Illustrator 22.0.1, SVG Export Plug-In . SVG Version: 6.00 Build 0)  -->
<svg version="1.1" id="Capa_1" xmlns="http://www.w3.org/2000/svg" xmlns:xlink="http://www.w3.org/1999/xlink" x="0px" y="0px"
	 viewBox="0 0 100 60" style="enable-background:new 0 0 100 60;" xml:space="preserve">
<style type="text/css">
	.st0{fill:#382E26;}
	.st1{fill:#8D837E;}
</style>
<title>tapir_silueta02</title>
<g id="Layer_2">
	<g id="Layer_1-2">
		<path class="st0" d="M18.3,55.1c0,0-0.4,2.2-2.2,0.2c-0.1-0.3-0.3-0.7-0.5-1c-0.4-1.3-0.6-2.6-0.6-3.9c0-1.2-0.6-4.1-0.6-7.5
			s-0.1-2.7,1-4c1.1-1.3,3.5-3.9,3.4-4.6c-1.6-1.7-3.3-3.3-5.2-4.7c-0.4,0-1.3,0.4-1.1-1.1c0,0-2.8-2.5-3.6-8.5
			c0,0-0.4-4.5,4.8-10.2c4.9-5.7,12-8.9,19.5-8.8C37.9,1,42.6,1.7,47,3.2c0.9,0.2,4.1,2.2,10.9-0.4L58.5,3V2.8l0.3,0.2l-0.1-0.2
			c0,0,0.6,0.4,0.6,0.3c0-0.2-0.1-0.3-0.2-0.5l0.4,0.4l-0.1-0.6l0.3,0.4V2.2l0.4,0.3l0.1-0.4l0.3,0.3V2L61,2.3l0.2-0.6l0.7,0.3V1.8
			L62.4,2V1.6L62.8,2V1.5l0.4,0.4l0.1-0.6l0.5,0.3V1.2l0.5,0.3V1.2l0.5,0.4l0.1-0.4l0.5,0.3l0.1-0.3l0.3,0.4l0.2-0.5l0.5,0.5L66.6,1
			l0.4,0.3V1l0.3,0.4L67.4,1l0.4,0.4L68,1l0.3,0.5l0.1-0.3l0.2,0.3l0.5-0.4l-0.3,0.4l0.7-0.2l-0.2,0.3l0.8-0.2l-0.4,0.5l0.7-0.3
			L70.2,2l0.7-0.3l-0.3,0.4l0.7-0.2L71,2.2l0.7-0.1l-0.2,0.3h1l-0.4,0.3h0.7l-0.3,0.3h0.8L73,3.3l0.8-0.1l-0.3,0.2h0.6l-0.3,0.3h0.7
			L74.2,4h0.6l-0.2,0h0.6l-0.4,0.3c0,0,0.6,0,0.9-0.4c0.2-0.4,1.1-1.9,2.5-0.6c0,0,1.1,0.5,0.5,3.3H79l-0.3,0.3h0.6L79,7.1h0.5
			l-0.3,0.3h0.4l-0.2,0.2h0.4l-0.3,0.3h0.5l-0.2,0.2c0,0,0.2,0,0.4,0.4c0.9,1.6,2.2,2.9,3.8,3.9c1.5,0.8,3,1.8,4.3,2.9
			c0.5,0.4,1.3,0.9,1.8,1.2c2.2,1.9,3.5,4.7,3.6,7.6c0,0,0.1,1.3,0,1.5c-0.2,0.7-0.8,1.1-1.5,0.9c-0.2,0-0.5,0-0.7,0
			c-0.4,0.2-0.8,0.2-1.3,0.1c-1,0.4-2.1,0.5-3.2,0.2c-1.5-0.4-1.1,0.6-5.7-0.1c-2.4-0.3-4.7-0.8-6.9-1.6l-1.9,0.6
			c-1.2,0.4-2.1,0.4-2.4,0.9c-0.7,1.2-1.7,2.1-2.9,2.8c-1.4,0.9-2.7,2.2-3.6,3.7c-0.3,0.4-2.6,6.6-3.4,9.1c-0.7,2.4-1.1,10.6,0,12.1
			c1.1,1.5,2.2,1.2,2.2,1.2s2.4,1.5,1.1,1.6c-1.3,0.3-2.7,0.3-4.1,0.1c0,0,0.3,1.1-1.2,0.8c-1.5-0.3-1.5-0.6-1.5-1.2
			c-0.3-1.2-0.5-2.5-0.6-3.8c0-1.7-0.4-1.9-0.4-1.9c-0.7,1.3-1.7,2.4-2.8,3.3c-1.3,0.8-2.3,0.9-2.3,0.3c-0.2-0.8,0.1-1.6,0.8-2
			c0,0-1.4,0.3-1.7,0.9c-0.7-0.3-0.9-1.1-0.6-1.8c0-0.1,0.1-0.2,0.2-0.2c0.9-1.3,1-1.2,1-1.2s-1.7,0.4-1-0.5c0.7-0.9,2.7-3,3.2-3.7
			c0.5-0.7,0.6-1.6,0.2-2.4c0,0-0.9-1.5-1.4-2.2c-0.5-0.7-4.9-5.8-5.1-6.3L45,35.5l-0.5,0.4v-0.3L43.8,36v-0.2l-1,0.4l0.2-0.2
			l-0.7,0.2h-1.2l-0.7,0.3l0.1-0.3c0,0-2.3,0.1-4,0H36v-0.1l-0.7,0.1l0.1-0.2l-0.8,0.3l0.3-0.3L34.3,36v-0.3l-0.5,0.2l0.1-0.2
			l-0.4,0.1l-0.1-0.2l-0.5,0.1l0.1-0.3l-0.4,0.2l0.2-0.2l-0.5,0.2l0.2-0.3l-0.5,0.1l0.1-0.1h-0.7l0.3-0.1h-0.5
			c-0.3-0.3-0.7-0.5-1.1-0.7c-0.4-0.1-0.8-0.3-1.2-0.5c0,0-0.6,0.4-0.7,0.7c-0.1,0.3,0.1,0.3-0.3,0.5c0.1,0.7,0.1,1.5,0,2.2
			c0,0,0.1,0.6,0.4,2.6c0.3,2.1,0.8,4.2,1.5,6.3c0.3,1.4,0.8,2.8,1.5,4c1.2,1.8,2.5,4,4.2,4.9c0,0,0.8,0.1,2.3,2
			c-0.6,0.2-1.2,0.1-1.7-0.2c0,0,1,1.2,0.5,1.4c-0.9,0.1-1.8,0-2.6-0.3c-0.3-0.2-0.7-0.4-1-0.5c0,0-0.4,2-1.4,1.6s-0.9-0.9-1.2-1.4
			c-0.4-0.8-0.8-1.6-1-2.5c-0.5-1.3-1.2-2.5-2.1-3.6c-0.9-0.9-1.5-2-1.6-3.2c-0.7-0.6-1.2-1.5-1.3-2.4c-0.3-1.6-0.8-3.2-1.5-4.7
			c0,0-3,3.1-3.1,5.4c-0.1,2.3-0.7,5,1,6.2l2.7,1.9l-0.7,0.3c0,0,0.6,1,0.4,1.2c-1.1-0.1-2.3-0.3-3.4-0.7L18.3,55.1z"/>
		<path class="st1" d="M80.1,8.1h-0.5l0.3-0.3h-0.4l0.2-0.2h-0.4l0.3-0.3h-0.5L79.3,7h-0.6L79,6.8h-0.3h-0.3l-0.3-0.2l0.2-0.1
			L77.7,6l0.5-0.2l-1-0.2l0.3-0.2h-0.8L77,5.2h-0.7l0.4-0.3L76,5.1l0,0l0.4-0.3l-0.7,0.1l0,0l0.4-0.3h-0.8l0.3-0.3l-0.8,0l0,0
			L75.1,4h-0.6l0.2-0.2h-0.6l0.3-0.3h-0.7L74,3.2h-0.6L73.7,3l-0.8,0.1l0.3-0.4h-0.8l0.3-0.3H72l0.4-0.3h-1l0.3-0.1L71,2.2l0.3-0.3
			l-0.7,0.2l0.3-0.4L70.2,2l0.3-0.4l-0.7,0.3l0.4-0.5l-0.8,0.2l0.2-0.3l-0.7,0.2l0.3-0.4l-0.5,0.4l-0.2-0.3l-0.1,0.4L68,1l-0.2,0.4
			L67.4,1l-0.2,0.4L66.9,1v0.4L66.6,1l-0.1,0.5L66,1.1l-0.2,0.5l-0.4-0.4l-0.1,0.3l-0.5-0.3l-0.1,0.4l-0.5-0.4v0.4l-0.4-0.3v0.3
			l-0.6-0.3l-0.2,0.6l-0.3-0.4V2l-0.5-0.4V2l-0.5-0.2v0.3l-0.6-0.3L61,2.3L60.5,2v0.5l-0.3-0.3l-0.1,0.4l-0.4-0.3v0.5l-0.3-0.4
			l0.1,0.6l-0.4-0.4c0.1,0.2,0.1,0.3,0.2,0.5c0,0.1-0.6-0.3-0.6-0.3l0.1,0.2l-0.3-0.2V3l-0.6-0.2c-0.9,0.3-1.7,0.6-2.5,0.8
			c1.3,0.1,2.6,0.2,3.9,0.1l1.2-0.1l0.2-0.3l1,0.2l0.3-0.2l1.5,0.2l0.7-0.2h0.5l0.7,0.2H67L67.9,4l1,0.2c0.3-0.1,0.6,0,0.9,0.1
			c0.3,0.1,0.6,0.2,1,0.3l1.1,0.1l0.5,0.2l0.8,0.5c0,0-0.3,0,0.9,0.4c1.2,0.4,1.1,0.3,1.1,0.3c0.2,0.2,0.4,0.4,0.7,0.5
			c0.3,0.1,0.5,0.2,0.8,0.3l0.9,0.2v0.5l0.4,0.1c0.3,0.1,0.8,0.4,0.8,0.4l0.4,0.1h0.4h0.5c0,0-0.1-0.1-0.1-0.1L80.1,8.1z"/>
	</g>
</g>
</svg>
