<?xml version="1.0" encoding="utf-8"?>
<!-- Generator: Adobe Illustrator 22.0.1, SVG Export Plug-In . SVG Version: 6.00 Build 0)  -->
<svg version="1.1" id="Capa_1" xmlns="http://www.w3.org/2000/svg" xmlns:xlink="http://www.w3.org/1999/xlink" x="0px" y="0px"
	 viewBox="0 0 100 60" style="enable-background:new 0 0 100 60;" xml:space="preserve">
<style type="text/css">
	.st0{fill:#382E26;}
</style>
<title>tapir_silueta01</title>
<g id="Layer_2">
	<g id="Layer_1-2">
		<path class="st0" d="M2.5,17.7C2.3,18,2,19,2,19h0.3L2,19.8c0,0,0.4-0.7,0.3-0.5c-0.1,0.4-0.2,0.7-0.2,1.1l0.1-0.2l-0.1,0.9h0.2
			c-0.1,0.5-0.1,0.9,0,1.4l0.2-0.2v0.8l0.3-0.3l-0.2,0.7h0.3c-0.5,0.6-0.3,1-0.3,1l0.4-0.3L3,25.1l0.2-0.1l-0.1,0.7l0.5-0.1
			c-0.1,0.4-0.1,0.7-0.2,1.1l0.3-0.1l-0.1,0.5l0.4-0.2l-0.2,0.5L4.3,27L4,27.5l0.4-0.1L4,27.8h0.4v0.5h0.3l-0.1,0.4L5.2,29l-0.2,0.3
			c0.7,1.1,1.2,2.3,1.4,3.5c-0.2,1.9-0.9,3.8-2.2,5.3c-0.7,0.7-1,1.6-0.9,2.6c0.2,0.8,0.3,1.6,0.4,2.4c0,1.4,0.1,0.6,0.1,1.2
			c0,0.5,0,2.5,0,2.5H4l-0.3,0.6l0.2-0.1l-0.2,0.6L4,48.1l-0.1,0.3c0,0.9-0.1,1.8-0.3,2.7c-0.1,0.8,1.6,1.4,1.6,1.4
			c0.7,0.2,1.3,0.4,2,0.6c0.6,0.1,0.4-1.2,0.4-1.2c0.2,0.2,0.3,0.3,0.5,0.4c0.4,0.2,0.7,0.3,1.1,0.4c1.1,0.9,2.1,0.6,2.2,0.3
			c0.1-0.3-0.8-1.3-1.8-2c-0.9-0.7-1.6-1-1.5-1.7c0.1-1.2,0.1-2.4,0.1-3.5c0-0.6,0.3-0.7,0.2-0.8c0-0.2-0.1-0.3,0.3-0.8
			c0.3-0.5,0.6-0.9,0.8-1.4c0,0,0,0.2,0.5,1.6c0.5,1.4,0,1.5,0,1.5l0.2-0.1v0.3l0.2-0.2v0.6l0.2-0.1l-0.1,0.5l0.2-0.1l-0.1,0.4h0.2
			v0.8H11l-0.1,0.7c0,0,0-0.3,0.2,0c0.2,0.5,0.3,0.9,0.2,1.4c0,0.4,0,0.8,0,1.2c0.3,0.7,1.7,0.9,1.7,0.9c0.2,0.3,0.5,0.5,0.8,0.6
			c0.1,0.2,2.1,0.9,2.4,0.6s-0.6-2-0.6-2c0.9,1,2.4,1,3.4,0.1c0.1-0.1,0.1-0.1,0.2-0.2c0,0-0.3-0.8-2.2-1.5c-2-0.7-1.7-1.1-2-3.7
			c-0.2-1.4,0-2.9,0.5-4.2c0.2-0.8,0.8-2.1,1.2-3.3c0.7-1.9,1.6-3.8,2.6-5.6c0.4-0.5,0.8-0.3,0.8-0.3L20,32.9h0.7L20.5,33H21
			l-0.4,0.3h0.6l-0.1,0.1h0.6l-0.1,0.2l0.9,0l-0.3,0.1h0.6l-0.2,0.2h0.7l-0.2,0.1H24L23.7,34h0.7l-0.2,0.2l0.7-0.1v0.2h0.7l-0.2,0.2
			h0.9l-0.1,0.2l0.6-0.1l-0.1,0.2h0.7l-0.2,0.1h0.8L28,35.2l1-0.2l-0.1,0.2l0.8-0.1l-0.1,0.2l0.9-0.1v0.2h0.5v0.2l0.7-0.1l-0.2,0.2
			l0.6-0.1v0.2l0.4-0.1l0.2,0.2l0.7-0.2l0.1,0.1l0.5-0.2v0.2c0.5-0.1,1.1-0.2,1.6-0.3l-0.4,0.4c0.4-0.1,0.7-0.1,1.1-0.1
			c0.4,0,0.7,0,1.1-0.1v0.3l0.5-0.2v0.3l0.7-0.4v0.3l0.8-0.3v0.2c0.4-0.1,0.7-0.1,1.1-0.1c0.9,0,1.8,0,2.7,0.1V36l0.4-0.1l0.1,0.2
			l0.5-0.3l0.1,0.3c0.3-0.2,0.6-0.2,0.9-0.2c0.4,0.1,0.2,1.1,0.2,1.7c0.1,0.4,0.3,0.8,0.6,1h-0.2l0.2,0.7l-0.2,0.1l0.2,0.4
			c-0.1,0.5,0,0.9,0.1,1.4c0.2,0.7,0.2,1.5,0.3,1.6c0.1,0.1,0,0.5,0,0.5l0.2,0.3h-0.4c0.2,0.1,0.3,0.3,0.4,0.5l-0.2,0.4h-0.1
			l-0.3,0.4l0.4-0.1L46.2,45c0.1,0.1,0.1,0.3,0,0.4c0,0,0,0,0,0c0.1,0.3,0,0.6-0.3,0.7c0.2-0.1,0.4,0,0.5,0.2c0,0,0,0,0,0.1
			c-0.3,0.4,0.2,1,0.1,1.3c-0.1,0.4-0.2,0.7-0.2,1.1l0.3-0.1l-0.4,0.8l0.4-0.3c0,0,0-0.3-0.1,0.6c-0.2,1-0.3,2-0.3,3.1
			c0.1,0.6,0.1,1.3,0.1,1.9c0.1,1,0.5,1.3,0.7,1c0.2-0.3,0.4-0.7,0.5-1.1c0.2,0.4,0.4,0.7,0.8,0.9c0.1,0.3,0.4,0.5,0.7,0.6
			c0.6,0.1,2.7,0.4,2.2-0.2c-0.5-0.5-0.3-1-0.3-1c0.5,0.4,1,0.7,1.6,0.9c0.9,0.4,2.3,0.6,1.5-0.8c-0.6-0.9-1.4-1.8-2.2-2.5
			c-0.7-1.9-0.8-3.9-0.4-5.8c0.5-1.7,1.4-6.1,1.4-6.1c0.2,0.5,0.4,0.9,0.6,1.4l-0.2-0.1l0.3,0.4h-0.3l0.5,0.4L53.4,43
			c0.2,0.2,0.3,0.3,0.4,0.5c0.3,0.4-0.1,0.4,0.3,0.9c0.2,0.3,0.4,0.7,0.4,1.1h-0.2l0.3,0.3c0,0.7,0.1,1.3,0.1,1.3s0.1-0.3,0.3,0.2
			c0.1,0.3,0,0.7-0.1,1l0.3-0.1v0.7h0.2l-0.2,0.5l0.3-0.1c0.1,0.2,0.4,1.4,0.5,1.9s0.3,1.3,0.3,1.3l0.2-0.2l0.1,0.6v-0.1l0.1,0.6
			l0.1-0.1l0.1,0.6c0,0-0.1-0.2,0.2,0.1c0.2,0.3,0.4,0.7,0.5,1c1.1,1.4,1.4,0.3,1.4,0.3c0.4,0.8,1.2,0.7,2.2,0.8
			c1,0.1,0.2-1.2,0.2-1.2c1,1.1,2.2,0.5,3.2,0.6c0.9,0-1-1.8-2.3-2.2c-1.3-0.5-2.1-2.5-2.1-2.5c-1.1-2.9-1.4-6-0.9-9
			c0.2-1.8,0-5.6,0-5.6c0.5-0.7,1.1-1.4,1.7-2c0.9-0.9,0.9-1.4,1.6-2.1s0.2-0.9,1.3-1.1s1.3-1.4,2-2c0.6-0.6,1-0.3,1-0.3L67,28.1
			l0.8-0.3l-0.3-0.4h0.9l-0.2-0.6c0.7,0.1,1.3-0.6,1.3-0.6L69.4,26l1.4-0.5v-0.2l0.9-0.4c0.5-0.2,1-0.4,1.4-0.7
			c1.4,0.4,2.8,0.6,4.2,0.7c3.8-0.4,7.5-1.7,10.7-3.8c0,0,2.8-2.1,4.3-1.5c1.5,0.7,4.3,0.2,3-1c-1.4-1.2-1.7-1-2-1.5
			c0.2-0.5,0.1-1.1-0.3-1.6c-0.2,0-0.4,0.1-0.5,0.3c-0.1-0.2-0.2-0.5-0.3-0.7c0.7-0.2,1.5-0.4,2.2-0.5c0.2,0,0.4-0.1,0.6-0.2v0.2
			l0.2-0.2c0.6-0.4,1.3-0.7,2-1c0.3,0,1.1-1.1,0.8-1.6s-0.2-1.3-2.6-1.2c-1.5,0.1-3-0.1-4.5-0.4c-0.7-0.2-1.4-0.2-2.1-0.3
			c-1.2,0-5.2-0.4-5.9-0.6c-2.4-0.4-4.9-0.6-7.4-0.8c0,0-4.2,0-4.6,0.1c-0.5-0.8-1.5-1.3-2.4-1h-0.4V8h-0.3l0.1,0.1l-0.4,0.1
			l0.1,0.1l-0.4,0.1h0.2L67,8.6l0.1,0.1l-0.5,0.5L66.5,9l-0.1-0.1v0.3L65.9,9v0.1l-0.7-0.3v0.2l-0.8-0.2l0.1,0.2l-1.2-0.2l0.2,0.2
			l-0.8-0.1l0.3,0.2l-1-0.1L62,9.1c-0.5,0.1-0.9,0.1-1.4,0l0.3,0.2h-1L60,9.4l-0.9-0.1l0.2,0.2c0,0-1.6-0.4-1.8-0.2l0.3,0.2
			c0,0-1.7,0-2.2,0c-3.7,0-7.3-0.3-11-0.8c-2-0.3-4-0.9-5.8-1.7l0.1,0.3l-0.6-0.5L38.6,7l-0.8-0.5L38.1,7l-0.9-0.6l0.2,0.4l-1-0.5
			l0.2,0.3C36,6.3,35.2,6,34.5,5.9c-2.6-0.4-5.1-0.7-7.7-0.8c-3.8,0-7.6,0.5-11.2,1.5c-1.4,0.3-2.7,0.8-3.9,1.5c0,0-2.7,1.9-3.4,2.4
			c-2,1.1-3.6,2.8-4.6,4.8l0.1,0.1l-0.6,0.4h0.2L2.5,17.7z"/>
	</g>
</g>
</svg>
