<?xml version="1.0" encoding="utf-8"?>
<!-- Generator: Adobe Illustrator 22.0.1, SVG Export Plug-In . SVG Version: 6.00 Build 0)  -->
<svg version="1.1" id="Capa_1" xmlns="http://www.w3.org/2000/svg" xmlns:xlink="http://www.w3.org/1999/xlink" x="0px" y="0px"
	 viewBox="0 0 100 60" style="enable-background:new 0 0 100 60;" xml:space="preserve">
<style type="text/css">
	.st0{fill:#382E26;}
</style>
<title>tapir_silueta03</title>
<g id="Layer_2">
	<g id="Layer_1-2">
		<path class="st0" d="M61.7,56.6c-1.8-0.8-1.8-4.3-1.8-4.3c-0.2-0.7,0.4-14.2,0.7-16.2c0.3-2,1.1-1.7,1.5-2.2
			c0.5-0.6,1.2-1,1.9-1.1c1.7-0.3,3.4-0.7,4.9-1.4c2.9-0.9,2.6-1.5,2.6-1.5c0.4,0.3,0.9,0.4,1.4,0.4c0.8-0.2,0.6-1,1.9,0.6
			c1.5,1.5,3.2,2.9,5,4c0.9,0.6,2.7,1.4,2.9,1.5c0.5,0.3,1.1,0.6,1.7,0.9c0.3,0.1,0.6,0.2,0.8,0.4c0.3,0.1,0.7,0,0.8-0.3
			c0.3-0.5,0.8-0.3,1.2,0c0.4,0.3,0.9,0.5,1.3,0.7c1.5,0.4,1.5-2.2,1.5-2.2c0-3,0.7-2.4-1.5-7.9c0,0-1.4-4.6-2.4-8.6s-0.7-5-0.7-5
			s2.1-3.8-2.2-4.4c0,0-2.6-7-21.6-5.6c0,0-8.9,0.5-14.4-1.2c0,0-12.5-2.6-16.4-2.4S13.5,2,6,13.4c0,0-4.4,6.4-2.6,11.4s2.6,5,2.9,7
			c0,0,1.1,0.3,1-2c2.7,0.8,4.9,2.8,5.8,5.5c0.4,2.9-0.3,5.8-1.9,8.2c0,0-1.5,0.9-0.5,3.7s2.9,6.2,3.9,8.5c0.9,2.3,0.4,3.1,2,3.4
			c1.5,0.3,4.3,0.7,3-0.7c0,0,4.7,1.4,2.6-0.7c-0.8-0.3-1.5-0.8-2.2-1.3c-0.9-0.8-3.6-4.7-2.6-7.9c1-3.2,2.2-6.3,2.2-6.3
			s6.1,6.4,7.1,7.5c0,0,2.5,3.5,2.3,1.2c0,0,1.7,2.1,1.5,0.2c0.1-1.6-0.4-3.1-1.2-4.4c-1.3-2.3-3.9-4.6-4.1-5.9s3.7-4.9,3.7-6.2
			l0.8,1.2l0.2-0.4l0.6,0.1c0,0,1.5,0.2,2.8,0.5c3.4,0.4,6.7,0.4,10.1,0.1c1.4-0.1,2.7-0.5,3.9-1.1c0,0,0.1,0,0.1,0
			c0.7,1.4-0.1,5.5-0.1,6.6c0,1.1-0.2,2.4-0.3,3.8c0,1.9,0.1,3.8,0.3,5.7c0.2,1.4-0.2,2.3,0,3.3c0.1,0.6,0.4,1.1,0.9,1.5
			c0.2,0.3,1,0.5,1.5,0.8c0.7,0.4,1.5,0.7,2.2,0.9c1.1,0.3,1.2-0.4,1.2-0.4c0-0.3-0.5-1-0.5-1c0.6,0.3,1.2,0.5,1.8,0.7
			c0.6,0.1,1.4,0.1,1.5-0.2s-1-1.2-1.5-1.5c-0.6-0.4-1.4-0.4-2.2-1.1c-0.8-0.6-0.9-3-1.1-4.3c0.1-1.9,0.4-3.8,1-5.6
			c0.3-1.1,0.9-2.7,0.9-2.7c0.3,0.6,0.4,1.2,0.5,1.8c0.2,1.2,0.7,2.5,1.3,4.9c0.5,1.9,0.9,3.9,1.2,5.9c0.2,2.2,0.4,3.2,1.4,4.3
			c0.4,0.6,1.3,0.7,1.9,0.3c0,0,0,0,0,0c0.5,0.9,3.2,1.1,3.5,0.9C63.3,58.4,63,57.5,61.7,56.6z"/>
	</g>
</g>
</svg>
